<svg version="1.1" id="Layer_1" xmlns="http://www.w3.org/2000/svg" xmlns:xlink="http://www.w3.org/1999/xlink" x="0px" y="0px"
	 width="100%" viewBox="0 0 401 401" enable-background="new 0 0 401 401" xml:space="preserve">
<path fill="#FFFFFF" opacity="1.000000" stroke="none" 
	d="
M1.000000,138.000000 
	C1.000000,92.014183 1.000000,46.528362 1.000000,1.021272 
	C134.610825,1.021272 268.221649,1.021272 401.916260,1.021272 
	C401.916260,134.569122 401.916260,268.138306 401.916260,401.853760 
	C268.333435,401.853760 134.666748,401.853760 1.000000,401.853760 
	C1.000000,314.111755 1.000000,226.305878 1.000000,138.000000 
M265.108002,93.033592 
	C262.075287,93.077415 259.042572,93.121246 255.086746,93.041595 
	C250.724731,93.081978 246.362732,93.122353 241.095367,93.044205 
	C235.829819,92.590919 230.564285,92.137634 223.891449,91.563202 
	C230.063278,97.417152 236.553467,97.042091 243.918655,96.961044 
	C248.282272,96.918152 252.645905,96.875259 257.891357,96.951302 
	C261.263214,97.246750 264.635040,97.542206 268.855835,97.953522 
	C271.573975,98.247429 274.292114,98.541336 277.810486,98.951637 
	C281.051392,99.566818 283.479767,98.102760 284.635315,95.338127 
	C285.066437,94.306671 283.820892,91.367767 283.100891,91.280960 
	C280.631073,90.983185 278.047974,91.509338 275.525696,91.851402 
	C274.961273,91.927948 274.468506,92.533073 273.065552,92.968269 
	C270.713806,93.032326 268.362030,93.096390 265.108002,93.033592 
M243.071945,100.985954 
	C240.162506,100.737289 237.253082,100.488632 234.343643,100.239967 
	C234.196045,100.819603 234.048431,101.399231 233.900833,101.978859 
	C239.590683,103.930733 245.280548,105.882599 251.726273,107.951973 
	C252.895966,107.951973 254.065659,107.951973 254.840378,107.951973 
	C253.805832,106.270966 252.675842,104.852333 251.995560,103.243546 
	C250.529785,99.777222 247.767166,98.912994 243.071945,100.985954 
M269.904572,50.946648 
	C273.273285,50.574360 276.642029,50.202072 280.744965,49.981560 
	C282.019165,50.893375 283.202759,52.374969 284.586975,52.595139 
	C287.243744,53.017712 290.337494,53.430946 292.587982,52.401253 
	C293.568573,51.952599 293.874603,47.289360 292.791901,45.681847 
	C290.940002,42.932308 287.729584,41.671719 284.277618,44.161591 
	C283.025421,45.064793 281.442719,45.509846 279.096222,46.031075 
	C275.402527,46.076298 271.708832,46.121521 267.120270,46.037266 
	C264.414886,46.079540 261.709503,46.121811 258.080627,46.040886 
	C253.377213,46.322388 248.673798,46.603889 243.143356,46.971272 
	C239.655396,47.514091 237.400497,46.514515 235.723282,42.974548 
	C234.995895,41.439323 231.682419,40.159344 229.777191,40.426918 
	C227.897980,40.690838 226.313950,43.056541 224.600418,44.500137 
	C224.914810,44.797310 225.229187,45.094486 225.543579,45.391659 
	C227.413147,45.106998 229.282730,44.822342 231.014603,44.558647 
	C232.766052,47.494781 234.377396,50.145126 235.936890,52.825623 
	C237.315979,55.196030 239.687851,57.562576 239.774612,59.996655 
	C239.981888,65.811798 242.864136,67.849915 247.565216,68.668503 
	C241.709229,68.833145 235.853241,68.997787 229.364578,69.022064 
	C228.855652,68.682083 228.346725,68.342094 228.002899,67.244743 
	C229.334274,63.111763 230.842148,59.021896 231.869919,54.814751 
	C232.119354,53.793629 230.919250,51.468658 230.153183,51.358383 
	C228.800308,51.163639 226.739059,51.801010 225.940018,52.835770 
	C224.827744,54.276157 224.109802,56.403042 224.109589,58.236198 
	C224.109207,61.491470 224.774796,64.746819 225.044037,68.847176 
	C224.296524,73.003464 224.018616,77.318275 222.682602,81.275902 
	C221.013138,86.221336 221.131775,87.384903 226.406967,87.868675 
	C233.242783,88.495560 240.131866,88.541580 247.883194,88.960014 
	C251.024979,89.519028 254.388199,89.556473 257.251312,90.771927 
	C260.664032,92.220695 263.916229,92.791534 266.202179,89.897728 
	C267.390961,88.392815 267.580658,83.826813 266.891937,83.506966 
	C264.028412,82.177155 259.413818,80.322182 257.726746,81.623123 
	C253.868439,84.598351 249.903244,83.517677 245.071930,84.043320 
	C238.872452,83.908005 232.672974,83.772690 226.279724,83.633148 
	C227.071381,80.398781 227.283432,78.390648 228.086411,76.656075 
	C228.615570,75.512993 229.995483,74.763741 231.925827,73.961983 
	C239.283020,73.919746 246.640198,73.877510 254.894150,73.956398 
	C258.598755,73.583176 262.303345,73.209953 266.936340,72.951523 
	C272.629181,72.912117 278.321991,72.872711 284.880371,72.947014 
	C288.023560,73.136848 291.070770,72.459366 293.702942,75.691536 
	C296.081055,78.611816 299.958008,76.535080 301.363953,74.399857 
	C302.688690,72.387970 302.756744,68.632553 301.809601,66.273804 
	C300.638367,63.357109 296.947052,62.826534 294.699402,64.910820 
	C291.179138,68.175232 287.182037,68.100296 282.085358,68.028946 
	C276.392700,68.073021 270.700012,68.117088 264.084595,68.032333 
	C259.724152,68.076424 255.363708,68.120514 250.254532,68.044960 
	C249.497498,68.038986 248.740448,68.033012 248.293106,67.395096 
	C252.089005,65.658104 253.746460,62.749222 252.945724,58.615479 
	C252.148911,54.502090 248.846039,55.269989 245.930817,54.869530 
	C244.468292,54.668621 243.176788,53.222721 240.821747,51.703819 
	C243.127686,51.225483 244.061722,51.031734 245.922150,50.961174 
	C250.617783,50.917889 255.313400,50.874599 260.901978,50.951584 
	C263.607208,50.910664 266.312439,50.869740 269.904572,50.946648 
M248.118011,33.044590 
	C241.662155,33.033703 235.386810,33.596741 230.093933,37.283661 
	C230.242630,37.813705 230.391327,38.343750 230.540024,38.873795 
	C236.701508,37.858173 242.862976,36.842556 249.930283,35.944618 
	C253.291000,35.908455 256.651733,35.872295 260.677094,36.203018 
	C261.631775,36.788475 262.699249,37.989292 263.519043,37.838974 
	C265.613403,37.454937 267.759949,36.717018 269.521027,35.563862 
	C270.013885,35.241127 269.579834,32.001160 268.985870,31.796366 
	C267.052673,31.129808 264.845215,31.083271 262.750214,31.127151 
	C261.497192,31.153395 260.257080,31.794407 258.177429,32.029793 
	C255.119888,32.408966 252.062332,32.788139 248.118011,33.044590 
M145.366653,277.831085 
	C139.279984,273.536987 133.193314,269.242859 126.794777,264.347839 
	C106.824501,243.862442 103.535698,212.290573 119.181183,187.361237 
	C124.467262,181.327911 129.753326,175.294601 135.390106,168.861008 
	C131.108414,161.470291 126.439384,153.410995 121.616859,145.086761 
	C119.954178,146.194763 118.477020,147.179123 116.344009,148.272247 
	C111.947350,152.536194 107.550690,156.800140 102.814781,161.652786 
	C101.249870,163.553497 99.603874,165.393646 98.132385,167.364120 
	C79.967621,191.688538 77.036621,218.778351 84.298019,247.390869 
	C87.520363,260.088074 94.223267,271.202423 103.195633,281.660767 
	C110.449287,287.478973 117.702942,293.297180 125.330147,299.697906 
	C132.206665,302.503693 139.083191,305.309509 146.424576,308.726135 
	C151.252716,309.503632 156.080841,310.281128 161.456970,311.720184 
	C166.970047,311.759674 172.483139,311.799164 178.837357,311.960358 
	C184.557724,310.918213 190.278091,309.876099 196.715363,308.682098 
	C201.609909,306.888489 206.504456,305.094879 211.441437,303.285706 
	C213.006607,305.998077 214.600357,308.681732 216.119370,311.407013 
	C220.780685,319.770020 220.769547,319.776245 214.648300,326.846680 
	C195.569565,348.883850 202.085693,383.208893 228.060074,396.420593 
	C232.516769,398.687500 237.599747,399.723114 242.393417,401.327515 
	C242.899109,400.658783 243.404800,399.990021 243.910477,399.321289 
	C239.010117,393.114838 234.640930,386.377319 229.087982,380.823334 
	C220.209747,371.943390 214.922440,362.206696 218.093185,349.428345 
	C220.185471,340.996185 225.024490,334.257690 232.774109,328.983856 
	C243.012619,323.319153 253.428482,323.892517 264.257172,328.696472 
	C272.337708,334.599640 279.897491,341.557648 279.699280,352.113373 
	C279.515625,361.892548 284.875610,368.335236 289.303589,376.057648 
	C301.149506,352.003052 288.986572,322.417328 264.309357,313.785828 
	C255.303711,310.686432 246.218323,309.967163 236.901627,312.449768 
	C235.753006,312.755829 234.202728,311.554565 232.734360,310.365967 
	C225.120438,297.227814 217.506516,284.089630 209.790558,270.775391 
	C204.516861,273.671295 199.713593,276.308899 194.153931,279.042938 
	C188.768036,280.415771 183.382141,281.788574 177.069595,283.040466 
	C172.044556,283.081543 167.019501,283.122650 161.309052,282.796448 
	C156.204330,281.251587 151.099609,279.706757 145.366653,277.831085 
M155.280853,178.077728 
	C152.823242,179.365036 150.365631,180.652328 147.295563,182.237381 
	C144.852554,184.118668 142.409531,185.999954 139.358337,188.194839 
	C129.806427,198.162613 125.103638,209.863785 125.933716,223.836105 
	C126.648415,235.866226 130.931213,246.043152 140.253586,254.718216 
	C142.804474,256.498566 145.355362,258.278931 148.281235,260.648102 
	C150.853149,261.710175 153.425064,262.772217 156.636841,264.175385 
	C158.423615,264.729340 160.210403,265.283325 162.791824,265.960175 
	C164.860016,266.252991 166.928192,266.545837 169.865097,266.960602 
	C171.909790,266.919006 173.954483,266.877411 176.753464,266.655945 
	C180.168442,265.716309 183.583420,264.776642 187.723877,263.919769 
	C192.499191,260.978210 197.274506,258.036652 202.648483,254.785873 
	C223.084320,236.637894 221.218887,203.100143 201.739563,186.299332 
	C196.825836,183.587204 191.912094,180.875092 186.307419,177.784714 
	C182.881439,177.152466 179.455444,176.520218 175.523773,175.271194 
	C173.347961,175.234558 171.172150,175.197937 168.209763,175.088867 
	C166.138580,175.446320 164.067383,175.803757 161.297363,176.303070 
	C159.530563,176.923950 157.763779,177.544830 155.280853,178.077728 
M270.775604,364.974548 
	C273.850616,364.930939 274.230530,363.565063 272.449738,361.352600 
	C272.010193,360.806519 270.529053,360.472290 270.573547,360.254517 
	C271.763611,354.428741 265.277985,351.679169 265.045197,346.434814 
	C265.027283,346.031219 263.945007,345.678528 263.361786,345.295532 
	C262.270721,344.579132 260.782990,344.099487 260.173187,343.090515 
	C258.702759,340.657501 257.643524,337.975983 256.476227,335.516388 
	C252.710266,336.202850 250.463654,340.857361 245.838455,339.254272 
	C245.536621,339.149628 244.707703,340.990234 243.933640,341.725708 
	C242.719208,342.879578 241.118423,344.948914 240.072647,344.733215 
	C235.106949,343.708771 236.136719,346.770996 236.597565,349.053955 
	C234.252563,348.938538 231.097900,347.923645 230.146637,348.950317 
	C228.910141,350.284821 228.952240,353.337311 229.380066,355.461853 
	C229.603180,356.569855 231.833298,357.273682 233.887955,358.649689 
	C233.747650,359.500275 233.437683,361.379303 233.200439,362.817474 
	C234.775055,364.034027 237.316925,365.225952 237.199417,366.028442 
	C236.200897,372.847900 241.596985,376.669708 243.104782,381.244446 
	C246.037338,380.262421 248.536377,380.032623 250.219650,378.740265 
	C254.190247,375.691803 259.779236,374.949249 262.469086,369.980804 
	C262.916534,369.154266 265.090515,368.715668 266.298248,368.953400 
	C269.516754,369.586853 270.583130,368.665985 269.832245,365.215424 
	C269.832245,365.215424 270.065033,364.917877 270.775604,364.974548 
M230.607483,201.136551 
	C231.738251,207.072845 233.588333,212.977722 233.849213,218.952011 
	C234.382812,231.172012 232.104614,243.541122 224.568329,252.956741 
	C218.527405,260.504120 220.043915,265.543152 224.456573,272.058197 
	C227.779907,276.964874 230.604584,282.209259 234.616577,288.917419 
	C241.292282,279.201965 247.904495,271.146393 252.762939,262.144287 
	C260.230774,248.307388 262.525391,233.125015 262.126312,217.333817 
	C261.703217,200.591003 257.075562,185.253906 247.802872,171.600357 
	C242.888000,164.363449 236.165573,158.357178 230.291687,151.766342 
	C228.791489,150.083054 225.919830,148.927765 228.037659,145.765259 
	C231.923004,139.963348 235.703659,134.091354 239.463928,128.346405 
	C279.439575,139.997879 315.351593,114.719017 321.776001,81.255081 
	C314.962372,81.255081 308.194092,81.255081 301.450806,81.255081 
	C295.087524,100.092888 274.392120,115.526634 250.937805,110.918930 
	C232.680389,107.332184 215.604462,92.347748 214.189575,69.495659 
	C212.914322,48.899059 225.013184,30.425766 247.114624,23.529699 
	C257.493561,20.291269 267.968140,21.472059 277.848663,26.075027 
	C290.439941,31.940838 298.079346,42.266582 302.476135,54.661747 
	C309.279022,54.661747 315.541199,54.661747 322.152924,54.661747 
	C321.892487,52.835182 321.831451,51.351154 321.457458,49.950691 
	C318.380035,38.426464 312.670471,28.514997 303.868896,20.311462 
	C285.469727,3.162467 264.170532,-1.713897 240.134796,4.948021 
	C225.757156,8.933032 214.502258,17.628103 206.004593,29.633362 
	C195.463531,44.525478 192.220551,61.307140 195.654129,79.129944 
	C198.628937,94.571388 205.885727,107.666481 218.690567,117.366241 
	C219.678223,118.114395 220.455994,120.708435 219.923447,121.637589 
	C216.696167,127.268318 213.059647,132.664490 209.607819,138.064026 
	C176.818283,124.165314 146.200897,130.924271 132.645782,139.573822 
	C137.301071,147.720291 141.968842,155.888580 146.611954,164.013718 
	C181.347656,149.305313 218.927994,167.905701 230.607483,201.136551 
M222.000107,74.164680 
	C221.577423,70.172585 221.154739,66.180496 220.732040,62.188404 
	C220.049347,62.224419 219.366669,62.260429 218.683975,62.296444 
	C218.481415,66.150833 218.119446,70.007904 218.184311,73.857796 
	C218.201294,74.866112 219.543625,75.852097 220.277298,76.848335 
	C220.846146,76.243668 221.414993,75.638992 222.000107,74.164680 
z"/>
<path fill="#737D86" opacity="1.000000" stroke="none" 
	d="
M230.362549,200.815048 
	C218.927994,167.905701 181.347656,149.305313 146.611954,164.013718 
	C141.968842,155.888580 137.301071,147.720291 132.645782,139.573822 
	C146.200897,130.924271 176.818283,124.165314 209.607819,138.064026 
	C213.059647,132.664490 216.696167,127.268318 219.923447,121.637589 
	C220.455994,120.708435 219.678223,118.114395 218.690567,117.366241 
	C205.885727,107.666481 198.628937,94.571388 195.654129,79.129944 
	C192.220551,61.307140 195.463531,44.525478 206.004593,29.633362 
	C214.502258,17.628103 225.757156,8.933032 240.134796,4.948021 
	C264.170532,-1.713897 285.469727,3.162467 303.868896,20.311462 
	C312.670471,28.514997 318.380035,38.426464 321.457458,49.950691 
	C321.831451,51.351154 321.892487,52.835182 322.152924,54.661747 
	C315.541199,54.661747 309.279022,54.661747 302.476135,54.661747 
	C298.079346,42.266582 290.439941,31.940838 277.848663,26.075027 
	C267.968140,21.472059 257.493561,20.291269 247.114624,23.529699 
	C225.013184,30.425766 212.914322,48.899059 214.189575,69.495659 
	C215.604462,92.347748 232.680389,107.332184 250.937805,110.918930 
	C274.392120,115.526634 295.087524,100.092888 301.450806,81.255081 
	C308.194092,81.255081 314.962372,81.255081 321.776001,81.255081 
	C315.351593,114.719017 279.439575,139.997879 239.463928,128.346405 
	C235.703659,134.091354 231.923004,139.963348 228.037659,145.765259 
	C225.919830,148.927765 228.791489,150.083054 230.291687,151.766342 
	C236.165573,158.357178 242.888000,164.363449 247.802872,171.600357 
	C257.075562,185.253906 261.703217,200.591003 262.126312,217.333817 
	C262.525391,233.125015 260.230774,248.307388 252.762939,262.144287 
	C247.904495,271.146393 241.292282,279.201965 234.616577,288.917419 
	C230.604584,282.209259 227.779907,276.964874 224.456573,272.058197 
	C220.043915,265.543152 218.527405,260.504120 224.568329,252.956741 
	C232.104614,243.541122 234.382812,231.172012 233.849213,218.952011 
	C233.588333,212.977722 231.738251,207.072845 230.362549,200.815048 
z"/>
<path fill="#6DB9E5" opacity="1.000000" stroke="none" 
	d="
M194.910339,278.946472 
	C199.713593,276.308899 204.516861,273.671295 209.790558,270.775391 
	C217.506516,284.089630 225.120438,297.227814 232.512939,310.964539 
	C232.207993,317.411713 232.124466,323.260345 232.040939,329.108978 
	C225.024490,334.257690 220.185471,340.996185 218.093185,349.428345 
	C214.922440,362.206696 220.209747,371.943390 229.087982,380.823334 
	C234.640930,386.377319 239.010117,393.114838 243.910477,399.321289 
	C243.404800,399.990021 242.899109,400.658783 242.393417,401.327515 
	C237.599747,399.723114 232.516769,398.687500 228.060074,396.420593 
	C202.085693,383.208893 195.569565,348.883850 214.648300,326.846680 
	C220.769547,319.776245 220.780685,319.770020 216.119370,311.407013 
	C214.600357,308.681732 213.006607,305.998077 211.441437,303.285706 
	C206.504456,305.094879 201.609909,306.888489 196.357407,308.302490 
	C195.999634,299.968231 196.062073,292.012726 195.950500,284.059692 
	C195.926544,282.350769 195.273560,280.650635 194.910339,278.946472 
z"/>
<path fill="#8382BE" opacity="1.000000" stroke="none" 
	d="
M102.895386,281.062103 
	C94.223267,271.202423 87.520363,260.088074 84.298019,247.390869 
	C77.036621,218.778351 79.967621,191.688538 98.132385,167.364120 
	C99.603874,165.393646 101.249870,163.553497 103.249985,161.667480 
	C103.789200,178.065125 103.893219,194.448105 103.589111,210.888153 
	C98.858208,210.216980 94.535423,209.488739 90.874008,208.871902 
	C89.920425,206.380341 89.181717,204.450180 88.443008,202.520035 
	C88.068207,202.512985 87.693398,202.505951 87.318596,202.498901 
	C86.924088,205.995987 86.529587,209.493088 85.958549,213.349792 
	C85.796387,215.707977 85.782867,217.708328 85.907921,219.699966 
	C85.914139,219.799026 87.651863,219.989990 87.694519,219.855774 
	C88.245033,218.122955 88.637436,216.339630 89.057762,214.566223 
	C89.094383,214.411697 89.046074,214.237030 89.456192,214.077927 
	C94.583183,214.732086 99.291214,215.380035 103.999588,216.495026 
	C103.949493,221.816101 103.899063,226.670090 103.458496,231.414200 
	C101.813408,231.304306 100.558441,231.304306 97.952126,231.304306 
	C99.637314,233.450562 100.660072,234.833832 101.769554,236.143616 
	C102.891602,237.468262 104.099533,238.720184 105.159760,240.365189 
	C102.739143,247.097672 97.414764,248.440140 91.865730,243.644577 
	C92.235832,240.236755 92.620506,237.231262 93.152954,233.071121 
	C87.037521,236.868546 86.220787,239.407562 88.302979,244.328003 
	C91.062744,251.726318 94.891403,253.157730 103.889336,251.001038 
	C104.294960,255.683029 104.658157,259.879730 104.825081,264.354401 
	C103.685555,265.302399 102.592262,265.838440 101.840759,266.679779 
	C101.071114,267.541443 100.636192,268.702057 100.054764,269.731842 
	C101.326775,270.352692 102.598778,270.973541 103.906731,272.060486 
	C103.593582,275.371765 103.244484,278.216949 102.895386,281.062103 
z"/>
<path fill="#8187C2" opacity="1.000000" stroke="none" 
	d="
M105.021355,264.076447 
	C104.658157,259.879730 104.294960,255.683029 104.122101,250.789307 
	C107.924286,247.253525 110.836632,244.139114 108.698608,238.668213 
	C107.098740,236.049118 105.473679,233.786606 103.848625,231.524094 
	C103.899063,226.670090 103.949493,221.816101 104.367310,216.434036 
	C105.436966,214.634491 106.139244,213.363007 106.841522,212.091522 
	C105.893425,211.671371 104.945328,211.251221 103.997238,210.831070 
	C103.893219,194.448105 103.789200,178.065125 103.419601,161.373123 
	C107.550690,156.800140 111.947350,152.536194 116.671967,148.674515 
	C116.999962,159.879730 116.901100,170.684357 117.083214,181.484238 
	C117.119759,183.651718 118.224960,185.801178 118.837425,187.958939 
	C103.535698,212.290573 106.824501,243.862442 126.657333,264.884003 
	C126.343079,267.174133 126.166252,268.928101 125.630806,270.779633 
	C123.899216,272.163788 122.526253,273.450378 120.995888,275.086487 
	C120.218987,277.319244 119.599487,279.202545 118.634491,281.041718 
	C117.237877,281.633331 116.186760,282.269012 115.135635,282.904724 
	C116.711067,285.353546 118.286507,287.802399 119.984901,290.575439 
	C122.069092,291.657867 124.030319,292.416107 125.994232,293.560059 
	C125.650154,295.669006 125.303383,297.392181 124.956604,299.115387 
	C117.702942,293.297180 110.449287,287.478973 103.045517,281.361450 
	C103.244484,278.216949 103.593582,275.371765 104.109802,271.814331 
	C109.234077,267.603638 114.191231,264.105255 119.479187,260.373413 
	C118.088524,258.884064 117.146408,257.875092 116.179489,256.839539 
	C112.228989,259.401764 108.625168,261.739105 105.021355,264.076447 
z"/>
<path fill="#62CBE6" opacity="1.000000" stroke="none" 
	d="
M269.598450,365.512207 
	C270.583130,368.665985 269.516754,369.586853 266.298248,368.953400 
	C265.090515,368.715668 262.916534,369.154266 262.469086,369.980804 
	C259.779236,374.949249 254.190247,375.691803 250.219650,378.740265 
	C248.536377,380.032623 246.037338,380.262421 243.104782,381.244446 
	C241.596985,376.669708 236.200897,372.847900 237.199417,366.028442 
	C237.316925,365.225952 234.775055,364.034027 233.200439,362.817474 
	C233.437683,361.379303 233.747650,359.500275 233.887955,358.649689 
	C231.833298,357.273682 229.603180,356.569855 229.380066,355.461853 
	C228.952240,353.337311 228.910141,350.284821 230.146637,348.950317 
	C231.097900,347.923645 234.252563,348.938538 236.597565,349.053955 
	C236.136719,346.770996 235.106949,343.708771 240.072647,344.733215 
	C241.118423,344.948914 242.719208,342.879578 243.933640,341.725708 
	C244.707703,340.990234 245.536621,339.149628 245.838455,339.254272 
	C250.463654,340.857361 252.710266,336.202850 256.476227,335.516388 
	C257.643524,337.975983 258.702759,340.657501 260.173187,343.090515 
	C260.782990,344.099487 262.270721,344.579132 263.361786,345.295532 
	C263.945007,345.678528 265.027283,346.031219 265.045197,346.434814 
	C265.277985,351.679169 271.763611,354.428741 270.573547,360.254517 
	C270.529053,360.472290 272.010193,360.806519 272.449738,361.352600 
	C274.230530,363.565063 273.850616,364.930939 270.251343,364.679352 
	C268.991974,364.298584 268.256897,364.212982 267.521820,364.127411 
	C267.491699,364.283630 267.461578,364.439819 267.431458,364.596039 
	C268.153809,364.901428 268.876129,365.206818 269.598450,365.512207 
z"/>
<path fill="#6AC0E6" opacity="1.000000" stroke="none" 
	d="
M186.998367,178.162964 
	C191.912094,180.875092 196.825836,183.587204 201.723389,186.993134 
	C201.471664,188.973312 201.033783,190.259216 201.030914,191.546112 
	C200.987244,211.134567 200.976151,230.723221 201.045853,250.311508 
	C201.051529,251.907211 201.700027,253.500626 202.049820,255.095093 
	C197.274506,258.036652 192.499191,260.978210 187.361725,263.422363 
	C186.999176,234.670975 186.998764,206.416977 186.998367,178.162964 
z"/>
<path fill="#6EB7E4" opacity="1.000000" stroke="none" 
	d="
M186.652893,177.973846 
	C186.998764,206.416977 186.999176,234.670975 186.998993,263.380981 
	C183.583420,264.776642 180.168442,265.716309 176.376572,266.290192 
	C176.009613,235.912277 176.019531,205.900131 176.029449,175.887970 
	C179.455444,176.520218 182.881439,177.152466 186.652893,177.973846 
z"/>
<path fill="#65C8E6" opacity="1.000000" stroke="none" 
	d="
M202.349152,254.940491 
	C201.700027,253.500626 201.051529,251.907211 201.045853,250.311508 
	C200.976151,230.723221 200.987244,211.134567 201.030914,191.546112 
	C201.033783,190.259216 201.471664,188.973312 201.878998,187.296417 
	C221.218887,203.100143 223.084320,236.637894 202.349152,254.940491 
z"/>
<path fill="#63C9E6" opacity="1.000000" stroke="none" 
	d="
M265.000427,314.164581 
	C288.986572,322.417328 301.149506,352.003052 289.303589,376.057648 
	C284.875610,368.335236 279.515625,361.892548 279.699280,352.113373 
	C279.897491,341.557648 272.337708,334.599640 264.272949,328.009003 
	C264.525970,322.935883 264.763184,318.550232 265.000427,314.164581 
z"/>
<path fill="#8182BF" opacity="1.000000" stroke="none" 
	d="
M139.966614,254.118866 
	C130.931213,246.043152 126.648415,235.866226 125.933716,223.836105 
	C125.103638,209.863785 129.806427,198.162613 139.719940,188.462585 
	C140.387665,191.005798 140.948929,193.280121 140.959198,195.556900 
	C141.034637,212.306854 141.046753,229.057571 140.953644,245.807343 
	C140.938232,248.579590 140.311066,251.348450 139.966614,254.118866 
z"/>
<path fill="#73AEDF" opacity="1.000000" stroke="none" 
	d="
M175.776611,175.579590 
	C176.019531,205.900131 176.009613,235.912277 175.999420,266.380127 
	C173.954483,266.877411 171.909790,266.919006 169.431961,266.443604 
	C168.997986,235.671478 168.997162,205.416382 168.996338,175.161285 
	C171.172150,175.197937 173.347961,175.234558 175.776611,175.579590 
z"/>
<path fill="#76A4D8" opacity="1.000000" stroke="none" 
	d="
M168.603058,175.125076 
	C168.997162,205.416382 168.997986,235.671478 168.997604,266.382629 
	C166.928192,266.545837 164.860016,266.252991 162.395508,265.442688 
	C161.998199,235.337189 161.997192,205.749191 161.996201,176.161209 
	C164.067383,175.803757 166.138580,175.446320 168.603058,175.125076 
z"/>
<path fill="#7F8CC5" opacity="1.000000" stroke="none" 
	d="
M140.110107,254.418549 
	C140.311066,251.348450 140.938232,248.579590 140.953644,245.807343 
	C141.046753,229.057571 141.034637,212.306854 140.959198,195.556900 
	C140.948929,193.280121 140.387665,191.005798 140.024017,188.305786 
	C142.409531,185.999954 144.852554,184.118668 147.913910,182.377991 
	C148.687149,183.323807 148.976517,184.128891 148.977356,184.934250 
	C149.002274,208.762039 149.014587,232.589874 148.952866,256.417511 
	C148.949722,257.632324 148.270645,258.845398 147.906265,260.059265 
	C145.355362,258.278931 142.804474,256.498566 140.110107,254.418549 
z"/>
<path fill="#7C94CB" opacity="1.000000" stroke="none" 
	d="
M148.093750,260.353699 
	C148.270645,258.845398 148.949722,257.632324 148.952866,256.417511 
	C149.014587,232.589874 149.002274,208.762039 148.977356,184.934250 
	C148.976517,184.128891 148.687149,183.323807 148.220154,182.229111 
	C150.365631,180.652328 152.823242,179.365036 155.639832,178.577927 
	C155.998199,207.330185 155.997589,235.582230 155.996979,263.834290 
	C153.425064,262.772217 150.853149,261.710175 148.093750,260.353699 
z"/>
<path fill="#74ACDD" opacity="1.000000" stroke="none" 
	d="
M194.532135,278.994690 
	C195.273560,280.650635 195.926544,282.350769 195.950500,284.059692 
	C196.062073,292.012726 195.999634,299.968231 195.998947,308.378418 
	C190.278091,309.876099 184.557724,310.918213 178.418015,311.443451 
	C177.997864,301.671478 177.997055,292.416443 177.996246,283.161377 
	C183.382141,281.788574 188.768036,280.415771 194.532135,278.994690 
z"/>
<path fill="#7A9CD2" opacity="1.000000" stroke="none" 
	d="
M156.316910,264.004822 
	C155.997589,235.582230 155.998199,207.330185 155.997894,178.621918 
	C157.763779,177.544830 159.530563,176.923950 161.646790,176.232147 
	C161.997192,205.749191 161.998199,235.337189 161.998184,265.381226 
	C160.210403,265.283325 158.423615,264.729340 156.316910,264.004822 
z"/>
<path fill="#69C2E6" opacity="1.000000" stroke="none" 
	d="
M264.654877,313.975220 
	C264.763184,318.550232 264.525970,322.935883 264.118164,327.709534 
	C253.428482,323.892517 243.012619,323.319153 232.407532,329.046417 
	C232.124466,323.260345 232.207993,317.411713 232.565063,311.307434 
	C234.202728,311.554565 235.753006,312.755829 236.901627,312.449768 
	C246.218323,309.967163 255.303711,310.686432 264.654877,313.975220 
z"/>
<path fill="#7B99D0" opacity="1.000000" stroke="none" 
	d="
M160.908981,311.058624 
	C156.080841,310.281128 151.252716,309.503632 146.205048,307.943237 
	C145.988647,297.494202 145.991760,287.828064 145.994888,278.161896 
	C151.099609,279.706757 156.204330,281.251587 161.653625,283.436096 
	C161.998810,290.868988 162.086853,297.664062 161.949875,304.454559 
	C161.905334,306.662018 161.272659,308.857605 160.908981,311.058624 
z"/>
<path fill="#7E92CA" opacity="1.000000" stroke="none" 
	d="
M145.680771,277.996490 
	C145.991760,287.828064 145.988647,297.494202 145.972626,307.637848 
	C139.083191,305.309509 132.206665,302.503693 125.143379,299.406647 
	C125.303383,297.392181 125.650154,295.669006 126.357391,293.479614 
	C129.783371,290.554291 133.696869,288.641449 135.715698,285.507935 
	C138.748260,280.800964 136.770035,276.131256 132.039719,273.963928 
	C132.010895,274.005951 132.084824,273.931458 132.005402,273.579712 
	C129.947128,272.379333 127.968277,271.530701 125.989433,270.682068 
	C126.166252,268.928101 126.343079,267.174133 126.813271,265.184448 
	C133.193314,269.242859 139.279984,273.536987 145.680771,277.996490 
z"/>
<path fill="#77A3D6" opacity="1.000000" stroke="none" 
	d="
M161.182983,311.389404 
	C161.272659,308.857605 161.905334,306.662018 161.949875,304.454559 
	C162.086853,297.664062 161.998810,290.868988 161.996338,283.619751 
	C167.019501,283.122650 172.044556,283.081543 177.532928,283.100922 
	C177.997055,292.416443 177.997864,301.671478 177.997437,311.382568 
	C172.483139,311.799164 166.970047,311.759674 161.182983,311.389404 
z"/>
<path fill="#7F8AC5" opacity="1.000000" stroke="none" 
	d="
M119.009308,187.660095 
	C118.224960,185.801178 117.119759,183.651718 117.083214,181.484238 
	C116.901100,170.684357 116.999962,159.879730 116.999901,148.620148 
	C118.477020,147.179123 119.954178,146.194763 121.616859,145.086761 
	C126.439384,153.410995 131.108414,161.470291 135.390106,168.861008 
	C129.753326,175.294601 124.467262,181.327911 119.009308,187.660095 
z"/>
<path fill="#66C6E6" opacity="1.000000" stroke="none" 
	d="
M248.068695,67.963852 
	C242.864136,67.849915 239.981888,65.811798 239.774612,59.996655 
	C239.687851,57.562576 237.315979,55.196030 235.936890,52.825623 
	C234.377396,50.145126 232.766052,47.494781 231.014603,44.558647 
	C229.282730,44.822342 227.413147,45.106998 225.543579,45.391659 
	C225.229187,45.094486 224.914810,44.797310 224.600418,44.500137 
	C226.313950,43.056541 227.897980,40.690838 229.777191,40.426918 
	C231.682419,40.159344 234.995895,41.439323 235.723282,42.974548 
	C237.400497,46.514515 239.655396,47.514091 243.590546,47.272598 
	C244.357071,48.661945 244.676407,49.749962 244.995758,50.837982 
	C244.061722,51.031734 243.127686,51.225483 240.821747,51.703819 
	C243.176788,53.222721 244.468292,54.668621 245.930817,54.869530 
	C248.846039,55.269989 252.148911,54.502090 252.945724,58.615479 
	C253.746460,62.749222 252.089005,65.658104 248.158264,67.693771 
	C248.023422,67.992455 248.068695,67.963852 248.068695,67.963852 
z"/>
<path fill="#65C7E6" opacity="1.000000" stroke="none" 
	d="
M230.994476,73.838150 
	C229.995483,74.763741 228.615570,75.512993 228.086411,76.656075 
	C227.283432,78.390648 227.071381,80.398781 226.279724,83.633148 
	C232.672974,83.772690 238.872452,83.908005 245.579437,84.444397 
	C246.390625,86.176208 246.694321,87.506935 246.998016,88.837669 
	C240.131866,88.541580 233.242783,88.495560 226.406967,87.868675 
	C221.131775,87.384903 221.013138,86.221336 222.682602,81.275902 
	C224.018616,77.318275 224.296524,73.003464 225.437195,68.423874 
	C226.499496,68.001091 227.168640,68.001602 227.837799,68.002113 
	C228.346725,68.342094 228.855652,68.682083 229.686554,69.438126 
	C230.337189,71.182175 230.665833,72.510170 230.994476,73.838150 
z"/>
<path fill="#6DBAE5" opacity="1.000000" stroke="none" 
	d="
M247.440613,88.898842 
	C246.694321,87.506935 246.390625,86.176208 246.044022,84.504227 
	C249.903244,83.517677 253.868439,84.598351 257.726746,81.623123 
	C259.413818,80.322182 264.028412,82.177155 266.891937,83.506966 
	C267.580658,83.826813 267.390961,88.392815 266.202179,89.897728 
	C263.916229,92.791534 260.664032,92.220695 257.251312,90.771927 
	C254.388199,89.556473 251.024979,89.519028 247.440613,88.898842 
z"/>
<path fill="#8184C0" opacity="1.000000" stroke="none" 
	d="
M283.015167,68.164146 
	C287.182037,68.100296 291.179138,68.175232 294.699402,64.910820 
	C296.947052,62.826534 300.638367,63.357109 301.809601,66.273804 
	C302.756744,68.632553 302.688690,72.387970 301.363953,74.399857 
	C299.958008,76.535080 296.081055,78.611816 293.702942,75.691536 
	C291.070770,72.459366 288.023560,73.136848 284.438293,72.544655 
	C283.669159,70.816246 283.342163,69.490196 283.015167,68.164146 
z"/>
<path fill="#8184C0" opacity="1.000000" stroke="none" 
	d="
M280.010864,46.163933 
	C281.442719,45.509846 283.025421,45.064793 284.277618,44.161591 
	C287.729584,41.671719 290.940002,42.932308 292.791901,45.681847 
	C293.874603,47.289360 293.568573,51.952599 292.587982,52.401253 
	C290.337494,53.430946 287.243744,53.017712 284.586975,52.595139 
	C283.202759,52.374969 282.019165,50.893375 280.374878,49.539158 
	C280.006836,48.119148 280.008850,47.141541 280.010864,46.163933 
z"/>
<path fill="#6CBCE5" opacity="1.000000" stroke="none" 
	d="
M231.460144,73.900070 
	C230.665833,72.510170 230.337189,71.182175 230.002899,69.508301 
	C235.853241,68.997787 241.709229,68.833145 247.816956,68.316177 
	C248.068695,67.963852 248.023422,67.992455 248.003418,68.009743 
	C248.740448,68.033012 249.497498,68.038986 250.668243,68.431686 
	C252.053757,70.490700 253.025574,72.162987 253.997391,73.835266 
	C246.640198,73.877510 239.283020,73.919746 231.460144,73.900070 
z"/>
<path fill="#6CBCE5" opacity="1.000000" stroke="none" 
	d="
M227.920349,67.623428 
	C227.168640,68.001602 226.499496,68.001091 225.496063,68.001358 
	C224.774796,64.746819 224.109207,61.491470 224.109589,58.236198 
	C224.109802,56.403042 224.827744,54.276157 225.940018,52.835770 
	C226.739059,51.801010 228.800308,51.163639 230.153183,51.358383 
	C230.919250,51.468658 232.119354,53.793629 231.869919,54.814751 
	C230.842148,59.021896 229.334274,63.111763 227.920349,67.623428 
z"/>
<path fill="#7B98CE" opacity="1.000000" stroke="none" 
	d="
M282.550262,68.096542 
	C283.342163,69.490196 283.669159,70.816246 284.005493,72.487801 
	C278.321991,72.872711 272.629181,72.912117 266.426453,72.552902 
	C265.613495,70.823235 265.310425,69.492195 265.007355,68.161156 
	C270.700012,68.117088 276.392700,68.073021 282.550262,68.096542 
z"/>
<path fill="#74ACDD" opacity="1.000000" stroke="none" 
	d="
M264.545959,68.096741 
	C265.310425,69.492195 265.613495,70.823235 265.962219,72.495499 
	C262.303345,73.209953 258.598755,73.583176 254.445770,73.895828 
	C253.025574,72.162987 252.053757,70.490700 251.042603,68.491516 
	C255.363708,68.120514 259.724152,68.076424 264.545959,68.096741 
z"/>
<path fill="#6EB7E4" opacity="1.000000" stroke="none" 
	d="
M245.458954,50.899574 
	C244.676407,49.749962 244.357071,48.661945 244.004059,47.229660 
	C248.673798,46.603889 253.377213,46.322388 258.546051,46.447937 
	C259.343994,48.180428 259.676514,49.505871 260.009033,50.831314 
	C255.313400,50.874599 250.617783,50.917889 245.458954,50.899574 
z"/>
<path fill="#8184C0" opacity="1.000000" stroke="none" 
	d="
M273.942749,92.894859 
	C274.468506,92.533073 274.961273,91.927948 275.525696,91.851402 
	C278.047974,91.509338 280.631073,90.983185 283.100891,91.280960 
	C283.820892,91.367767 285.066437,94.306671 284.635315,95.338127 
	C283.479767,98.102760 281.051392,99.566818 277.367065,98.560188 
	C275.930023,96.410782 274.936401,94.652824 273.942749,92.894859 
z"/>
<path fill="#8187C2" opacity="1.000000" stroke="none" 
	d="
M259.011169,32.159088 
	C260.257080,31.794407 261.497192,31.153395 262.750214,31.127151 
	C264.845215,31.083271 267.052673,31.129808 268.985870,31.796366 
	C269.579834,32.001160 270.013885,35.241127 269.521027,35.563862 
	C267.759949,36.717018 265.613403,37.454937 263.519043,37.838974 
	C262.699249,37.989292 261.631775,36.788475 260.305725,35.701504 
	C259.626648,34.186356 259.318909,33.172722 259.011169,32.159088 
z"/>
<path fill="#6BBEE5" opacity="1.000000" stroke="none" 
	d="
M249.024445,35.826935 
	C242.862976,36.842556 236.701508,37.858173 230.540024,38.873795 
	C230.391327,38.343750 230.242630,37.813705 230.093933,37.283661 
	C235.386810,33.596741 241.662155,33.033703 248.560684,33.438232 
	C249.010391,34.496899 249.017426,35.161915 249.024445,35.826935 
z"/>
<path fill="#65C7E6" opacity="1.000000" stroke="none" 
	d="
M242.994965,96.837318 
	C236.553467,97.042091 230.063278,97.417152 223.891449,91.563202 
	C230.564285,92.137634 235.829819,92.590919 241.582977,93.421486 
	C242.378693,94.811615 242.686829,95.824471 242.994965,96.837318 
z"/>
<path fill="#7C94CB" opacity="1.000000" stroke="none" 
	d="
M279.553528,46.097504 
	C280.008850,47.141541 280.006836,48.119148 280.007782,49.463268 
	C276.642029,50.202072 273.273285,50.574360 269.451874,50.542770 
	C268.671173,48.814838 268.343170,47.490791 268.015137,46.166744 
	C271.708832,46.121521 275.402527,46.076298 279.553528,46.097504 
z"/>
<path fill="#6DB9E5" opacity="1.000000" stroke="none" 
	d="
M243.456818,96.899185 
	C242.686829,95.824471 242.378693,94.811615 242.035645,93.480751 
	C246.362732,93.122353 250.724731,93.081978 255.580780,93.421021 
	C256.386414,94.811089 256.697968,95.821732 257.009521,96.832375 
	C252.645905,96.875259 248.282272,96.918152 243.456818,96.899185 
z"/>
<path fill="#6BBEE5" opacity="1.000000" stroke="none" 
	d="
M250.970398,107.834473 
	C245.280548,105.882599 239.590683,103.930733 233.900833,101.978859 
	C234.048431,101.399231 234.196045,100.819603 234.343643,100.239967 
	C237.253082,100.488632 240.162506,100.737289 243.799713,101.112106 
	C246.675110,103.436989 248.822754,105.635727 250.970398,107.834473 
z"/>
<path fill="#69C2E6" opacity="1.000000" stroke="none" 
	d="
M221.991974,74.599503 
	C221.414993,75.638992 220.846146,76.243668 220.277298,76.848343 
	C219.543625,75.852097 218.201294,74.866112 218.184311,73.857796 
	C218.119446,70.007904 218.481415,66.150833 218.683975,62.296444 
	C219.366669,62.260429 220.049347,62.224419 220.732040,62.188404 
	C221.154739,66.180496 221.577423,70.172585 221.991974,74.599503 
z"/>
<path fill="#76A4D8" opacity="1.000000" stroke="none" 
	d="
M267.567688,46.102005 
	C268.343170,47.490791 268.671173,48.814838 269.008423,50.483856 
	C266.312439,50.869740 263.607208,50.910664 260.455505,50.891449 
	C259.676514,49.505871 259.343994,48.180428 259.007812,46.509537 
	C261.709503,46.121811 264.414886,46.079540 267.567688,46.102005 
z"/>
<path fill="#7E92CA" opacity="1.000000" stroke="none" 
	d="
M273.504150,92.931564 
	C274.936401,94.652824 275.930023,96.410782 276.966949,98.501991 
	C274.292114,98.541336 271.573975,98.247429 268.390320,97.572884 
	C267.286652,95.848312 266.648468,94.504379 266.010284,93.160454 
	C268.362030,93.096390 270.713806,93.032326 273.504150,92.931564 
z"/>
<path fill="#77A3D6" opacity="1.000000" stroke="none" 
	d="
M265.559143,93.097023 
	C266.648468,94.504379 267.286652,95.848312 267.965851,97.514954 
	C264.635040,97.542206 261.263214,97.246750 257.450439,96.891838 
	C256.697968,95.821732 256.386414,94.811089 256.042358,93.482758 
	C259.042572,93.121246 262.075287,93.077415 265.559143,93.097023 
z"/>
<path fill="#77A3D6" opacity="1.000000" stroke="none" 
	d="
M251.348328,107.893219 
	C248.822754,105.635727 246.675110,103.436989 244.223709,101.091042 
	C247.767166,98.912994 250.529785,99.777222 251.995560,103.243546 
	C252.675842,104.852333 253.805832,106.270966 254.840378,107.951973 
	C254.065659,107.951973 252.895966,107.951973 251.348328,107.893219 
z"/>
<path fill="#7A9CD2" opacity="1.000000" stroke="none" 
	d="
M249.477371,35.885777 
	C249.017426,35.161915 249.010391,34.496899 249.004074,33.499596 
	C252.062332,32.788139 255.119888,32.408966 258.594299,32.094440 
	C259.318909,33.172722 259.626648,34.186356 259.973419,35.518059 
	C256.651733,35.872295 253.291000,35.908455 249.477371,35.885777 
z"/>
<path fill="#FAFAFD" opacity="1.000000" stroke="none" 
	d="
M108.673431,239.024780 
	C110.836632,244.139114 107.924286,247.253525 104.079681,250.304031 
	C94.891403,253.157730 91.062744,251.726318 88.650208,244.350723 
	C90.010452,244.033142 90.945374,244.040024 91.880295,244.046906 
	C97.414764,248.440140 102.739143,247.097672 105.456322,240.328888 
	C106.799782,239.629181 107.736610,239.326981 108.673431,239.024780 
z"/>
<path fill="#FAFAFD" opacity="1.000000" stroke="none" 
	d="
M103.589111,210.888153 
	C104.945328,211.251221 105.893425,211.671371 106.841522,212.091522 
	C106.139244,213.363007 105.436966,214.634491 104.366974,215.966980 
	C99.291214,215.380035 94.583183,214.732086 89.265572,213.808228 
	C87.815689,213.351593 86.975388,213.170883 86.135086,212.990173 
	C86.529587,209.493088 86.924088,205.995987 87.318596,202.498901 
	C87.693398,202.505951 88.068207,202.512985 88.443008,202.520035 
	C89.181717,204.450180 89.920425,206.380341 90.874008,208.871902 
	C94.535423,209.488739 98.858208,210.216980 103.589111,210.888153 
z"/>
<path fill="#F7F8FC" opacity="1.000000" stroke="none" 
	d="
M104.825081,264.354401 
	C108.625168,261.739105 112.228989,259.401764 116.179489,256.839539 
	C117.146408,257.875092 118.088524,258.884064 119.479187,260.373413 
	C114.191231,264.105255 109.234077,267.603638 104.073853,271.348206 
	C102.598778,270.973541 101.326775,270.352692 100.054764,269.731842 
	C100.636192,268.702057 101.071114,267.541443 101.840759,266.679779 
	C102.592262,265.838440 103.685555,265.302399 104.825081,264.354401 
z"/>
<path fill="#F6F6FB" opacity="1.000000" stroke="none" 
	d="
M108.698616,238.668213 
	C107.736610,239.326981 106.799782,239.629181 105.566406,239.967651 
	C104.099533,238.720184 102.891602,237.468262 101.769554,236.143616 
	C100.660072,234.833832 99.637314,233.450562 97.952126,231.304306 
	C100.558441,231.304306 101.813408,231.304306 103.458496,231.414200 
	C105.473679,233.786606 107.098740,236.049118 108.698616,238.668213 
z"/>
<path fill="#ECEBF5" opacity="1.000000" stroke="none" 
	d="
M91.865730,243.644562 
	C90.945374,244.040024 90.010452,244.033142 88.728302,244.003540 
	C86.220787,239.407562 87.037521,236.868546 93.152954,233.071121 
	C92.620506,237.231262 92.235832,240.236755 91.865730,243.644562 
z"/>
<path fill="#F1F2F9" opacity="1.000000" stroke="none" 
	d="
M85.958549,213.349792 
	C86.975388,213.170883 87.815689,213.351593 88.846603,213.802002 
	C89.046074,214.237030 89.094383,214.411697 89.057762,214.566223 
	C88.637436,216.339630 88.245033,218.122955 87.694519,219.855774 
	C87.651863,219.989990 85.914139,219.799026 85.907921,219.699966 
	C85.782867,217.708328 85.796387,215.707977 85.958549,213.349792 
z"/>
<path fill="#FAFAFD" opacity="1.000000" stroke="none" 
	d="
M132.068542,273.921875 
	C136.770035,276.131256 138.748260,280.800964 135.715698,285.507935 
	C133.696869,288.641449 129.783371,290.554291 126.354706,293.093903 
	C124.030319,292.416107 122.069092,291.657867 120.130646,290.307281 
	C120.754166,289.194702 121.354912,288.674469 122.368164,288.098541 
	C123.939430,288.031647 125.662109,288.504425 126.159149,287.925293 
	C128.288666,285.444092 131.254578,282.819092 131.654999,279.932892 
	C132.158813,276.301239 128.747604,275.468506 125.269455,275.915680 
	C123.969414,276.082825 122.529457,275.161835 121.153290,274.737000 
	C122.526253,273.450378 123.899216,272.163788 125.630806,270.779633 
	C127.968277,271.530701 129.947128,272.379333 131.843430,273.639771 
	C131.863434,274.008362 131.965988,273.965118 132.068542,273.921875 
z"/>
<path fill="#8390C8" opacity="1.000000" stroke="none" 
	d="
M120.995895,275.086487 
	C122.529457,275.161835 123.969414,276.082825 125.269455,275.915680 
	C128.747604,275.468506 132.158813,276.301239 131.654999,279.932892 
	C131.254578,282.819092 128.288666,285.444092 126.159149,287.925293 
	C125.662109,288.504425 123.939430,288.031647 122.119888,287.844208 
	C120.632744,285.458984 119.806366,283.272400 118.979980,281.085815 
	C119.599487,279.202545 120.218987,277.319244 120.995895,275.086487 
z"/>
<path fill="#F6F6FB" opacity="1.000000" stroke="none" 
	d="
M118.634491,281.041718 
	C119.806366,283.272400 120.632744,285.458984 121.707390,287.899902 
	C121.354912,288.674469 120.754166,289.194702 120.007683,289.983093 
	C118.286507,287.802399 116.711067,285.353546 115.135635,282.904724 
	C116.186760,282.269012 117.237877,281.633331 118.634491,281.041718 
z"/>
<path fill="#FFFFFF" opacity="1.000000" stroke="none" 
	d="
M269.715332,365.363831 
	C268.876129,365.206818 268.153809,364.901428 267.431458,364.596039 
	C267.461578,364.439819 267.491699,364.283630 267.521820,364.127411 
	C268.256897,364.212982 268.991974,364.298584 269.896057,364.651001 
	C270.065033,364.917877 269.832245,365.215424 269.715332,365.363831 
z"/>
<path fill="#F1F2F9" opacity="1.000000" stroke="none" 
	d="
M132.039719,273.963928 
	C131.965988,273.965118 131.863434,274.008362 131.922852,273.991547 
	C132.084824,273.931458 132.010895,274.005951 132.039719,273.963928 
z"/>
</svg>