<svg version="1.1" id="Layer_1" xmlns="http://www.w3.org/2000/svg" xmlns:xlink="http://www.w3.org/1999/xlink" x="0px" y="0px"
	 width="100%" viewBox="0 0 1027 361" enable-background="new 0 0 1027 361" xml:space="preserve">
<path fill="#FFFFFF" opacity="1.000000" stroke="none" 
	d="
M789.000000,362.000000 
	C526.000061,362.000000 263.500092,362.000000 1.000106,362.000000 
	C1.000070,241.666733 1.000070,121.333473 1.000035,1.000154 
	C343.333221,1.000103 685.666443,1.000103 1027.999756,1.000051 
	C1027.999756,121.333183 1027.999756,241.666367 1027.999878,361.999756 
	C948.500000,362.000000 869.000000,362.000000 789.000000,362.000000 
M144.831604,34.014671 
	C148.374344,34.244289 152.294128,35.402042 154.383682,29.216274 
	C150.062653,30.833506 146.692841,32.094730 142.891922,33.709320 
	C142.777802,34.074181 142.663696,34.439041 142.549576,34.803898 
	C143.056976,34.563576 143.564362,34.323254 144.831604,34.014671 
M138.828156,94.380844 
	C138.381927,94.331566 137.935684,94.282295 137.489456,94.233017 
	C137.763489,94.699783 138.037521,95.166550 138.773895,96.175720 
	C145.923096,100.144547 153.286850,103.160942 161.941727,101.626007 
	C159.911926,98.862541 159.911926,98.862541 153.565979,99.765488 
	C153.546204,95.940506 151.071686,93.596298 147.776657,94.065659 
	C144.892822,94.476440 141.974045,94.642059 138.828156,94.380844 
M127.996925,56.194832 
	C128.156906,53.971951 128.316879,51.749069 128.577789,48.123661 
	C123.060982,57.054539 122.355415,72.325096 126.995567,74.919006 
	C126.995567,72.249481 126.864456,69.798424 127.026817,67.366974 
	C127.260132,63.872894 127.707191,60.393093 128.013077,57.720062 
	C131.167664,64.596710 129.056488,71.508888 127.666771,78.228531 
	C126.809273,82.374786 126.883369,83.681404 131.155182,83.967270 
	C137.740067,84.407928 144.346268,84.548454 150.924561,85.059395 
	C153.432678,85.254204 155.959457,85.912682 158.351532,86.729454 
	C161.768234,87.896080 166.234543,86.709145 166.904373,84.018990 
	C167.898956,80.024506 165.307938,77.910080 162.114563,77.256111 
	C160.398682,76.904716 158.264374,78.441315 156.359436,79.224640 
	C155.148865,79.722435 153.991135,80.953987 152.846863,80.909119 
	C145.633331,80.626221 138.430191,80.077980 129.353073,79.497856 
	C131.917542,76.404541 133.464798,72.683113 135.618362,72.290909 
	C141.896942,71.147461 148.414825,71.150261 154.844528,71.043076 
	C164.662476,70.879395 174.486374,70.923149 184.304688,71.075783 
	C185.945374,71.101288 187.837311,71.769478 189.149673,72.756760 
	C192.271484,75.105309 195.130432,74.490005 196.671524,71.528366 
	C197.659454,69.629807 197.797943,66.116264 196.650223,64.541939 
	C194.710281,61.880894 191.563904,62.229412 188.872620,64.548309 
	C187.694168,65.563705 186.188599,66.879074 184.820694,66.891808 
	C167.702271,67.051041 150.581863,66.996132 132.217850,66.996132 
	C133.378677,63.989578 134.664581,61.784924 135.011917,59.441174 
	C135.355881,57.120213 135.571991,53.188606 134.408890,52.540924 
	C131.197693,50.752728 129.402939,53.271637 128.743546,56.472488 
	C128.698837,56.689487 128.250885,56.823418 127.996925,56.194832 
M129.412460,89.556633 
	C121.651901,80.826233 118.912735,70.775620 120.949310,59.230408 
	C124.501183,39.095116 139.491241,27.180765 158.143600,26.248423 
	C174.813919,25.415155 189.499802,35.270401 196.049911,51.474541 
	C196.583252,52.793991 197.788666,54.760578 198.781494,54.822285 
	C204.126709,55.154499 209.503464,54.979446 215.018921,54.979446 
	C209.698792,28.998171 191.464783,12.492017 166.585449,9.282362 
	C143.712387,6.331532 121.026909,15.111258 109.328918,39.108082 
	C95.811150,66.837936 102.610924,91.582375 126.081223,111.910568 
	C123.223785,116.586891 120.487854,121.400070 117.330879,125.919098 
	C116.767662,126.725319 114.260307,126.851746 112.986420,126.381828 
	C92.428917,118.798569 72.008667,118.841888 51.593868,126.940605 
	C48.816887,128.042252 48.416000,129.050934 50.040092,131.642136 
	C53.329456,136.890244 56.093792,142.469772 59.438751,147.678818 
	C60.159065,148.800552 62.547897,149.641098 63.949627,149.390213 
	C68.575272,148.562317 73.058090,146.389771 77.672165,146.138885 
	C97.229271,145.075409 113.704178,151.655579 125.872322,167.431259 
	C135.585159,180.023666 138.931732,194.156982 136.181198,209.961502 
	C134.449265,219.913132 129.891998,228.304565 124.146736,235.887070 
	C127.887695,242.554153 131.546539,248.917297 135.035828,255.372101 
	C136.402512,257.900330 137.673782,259.174286 140.060852,256.460266 
	C148.445358,246.927383 155.182785,236.453705 159.017990,224.225998 
	C162.131943,214.297775 162.358673,204.115219 161.977432,193.879974 
	C161.524658,181.722885 158.390015,170.192612 151.500717,160.184921 
	C145.617264,151.638351 138.681839,143.815994 131.954544,135.349609 
	C135.022141,130.646759 138.754776,124.924408 142.438232,119.277428 
	C173.739212,129.399445 208.451767,110.234947 214.689056,77.002052 
	C209.646408,77.002052 204.649307,76.807526 199.686493,77.134254 
	C198.391556,77.219521 196.640366,78.666031 196.051987,79.930817 
	C188.833130,95.447678 176.452057,103.962524 159.710968,104.751030 
	C148.995544,105.255730 139.360687,100.558815 131.544632,92.940994 
	C130.595810,92.016235 130.446854,90.270798 130.657349,89.182747 
	C134.732422,90.121834 138.765289,91.547668 142.890778,91.905411 
	C153.698227,92.842598 164.540817,93.493324 175.382538,93.811584 
	C177.434662,93.871826 179.714905,92.092743 181.533356,90.697617 
	C182.105865,90.258392 181.756439,87.287086 181.416183,87.205956 
	C179.319443,86.706017 177.092545,86.487160 174.933380,86.608856 
	C173.540131,86.687386 172.223221,87.764481 170.813019,87.953751 
	C158.180954,89.649101 145.590866,89.261604 133.018524,87.177200 
	C132.140320,87.031601 131.017914,88.358971 129.412460,89.556633 
M697.488403,152.018280 
	C692.739929,161.592606 690.144287,171.731339 688.692017,182.319778 
	C686.811890,196.027405 687.057007,209.646225 689.651367,223.142746 
	C692.676453,238.879562 699.689026,252.704758 710.215576,264.967621 
	C718.591125,274.724792 728.606384,282.201385 739.901855,287.741608 
	C757.024048,296.139832 775.397339,298.433685 794.457458,298.204987 
	C813.955261,297.971039 832.132019,293.998871 849.105469,284.445801 
	C864.654724,275.694336 876.688416,263.505676 885.086365,247.755844 
	C898.080933,223.385513 900.163025,197.269882 894.603638,170.971878 
	C887.562805,137.666031 867.326782,114.668549 835.021973,102.921242 
	C813.213928,94.990944 790.732666,95.083252 768.363831,99.100868 
	C736.459900,104.831039 712.294922,121.711823 697.488403,152.018280 
M669.000000,274.485901 
	C669.000000,265.412903 669.000000,256.339874 669.000000,246.798035 
	C667.413147,247.415192 666.492981,247.684052 665.654175,248.112305 
	C645.364502,258.471008 623.847778,261.365784 601.539246,257.911102 
	C585.949768,255.496948 573.204895,247.664978 564.316956,234.547714 
	C554.565247,220.155777 552.350769,204.107620 554.919189,187.043945 
	C557.938721,166.983185 568.253235,152.097580 586.192810,143.083664 
	C605.623596,133.320435 626.208496,134.023880 646.737793,139.031021 
	C654.231262,140.858688 661.395996,144.033951 668.764771,146.613373 
	C668.764771,132.155731 668.764771,117.708466 668.764771,103.724007 
	C648.479065,96.285263 627.667358,96.611107 606.889404,97.085342 
	C599.852417,97.245949 592.664307,97.653549 585.847656,99.244179 
	C568.705872,103.244072 552.721619,109.814445 538.944092,121.375526 
	C525.312073,132.814575 514.851501,146.200638 508.882446,163.104065 
	C502.359344,181.576431 501.359985,200.354065 503.877533,219.660049 
	C506.077881,236.533966 512.298889,251.607086 523.135986,264.450867 
	C541.818420,286.592651 566.800537,296.095581 595.029358,297.900299 
	C604.820312,298.526245 614.748352,298.699432 624.498779,297.813263 
	C635.348877,296.827118 646.275635,295.181000 656.789673,292.392059 
	C669.176453,289.106354 669.000000,288.441071 669.000000,274.485901 
M382.999420,249.984039 
	C382.919220,249.068405 382.839050,248.152786 382.729462,246.901474 
	C381.406708,247.417511 380.486877,247.688492 379.647308,248.116776 
	C359.353607,258.468964 337.834595,261.370911 315.524536,257.909882 
	C299.935577,255.491516 287.197418,247.650406 278.304047,234.532837 
	C268.542267,220.134445 266.385132,204.082123 268.914886,187.018829 
	C271.866394,167.110901 282.115753,152.220062 299.760315,143.231857 
	C319.245270,133.306137 340.065552,133.953796 360.774506,139.033737 
	C368.262024,140.870438 375.423218,144.037552 382.868774,146.645035 
	C382.868774,132.279190 382.868774,117.973419 382.868774,102.706467 
	C372.218018,100.811882 361.561127,97.601051 350.824921,97.309341 
	C333.996368,96.852112 316.695435,96.247391 300.340851,99.480400 
	C264.720306,106.521957 237.990509,126.376701 223.601608,160.834137 
	C218.079453,174.058197 216.855698,188.104401 216.167084,202.136917 
	C215.857239,208.450958 217.146164,214.879211 218.037170,221.209534 
	C220.370209,237.784851 226.938354,252.589417 237.846313,265.251007 
	C249.600754,278.895172 264.395416,287.807312 281.665588,293.134277 
	C297.904999,298.143341 314.443085,298.070099 331.102234,298.048798 
	C347.489258,298.027863 363.378052,295.516113 378.827362,290.018616 
	C381.955078,288.905640 383.146484,287.285919 383.080078,283.885132 
	C382.865417,272.890900 383.000000,261.889862 382.999420,249.984039 
M1019.000000,214.436890 
	C1019.000000,176.379776 1019.000000,138.322662 1019.000000,100.418182 
	C1002.156982,100.418182 986.254028,100.418182 970.000000,100.418182 
	C970.000000,102.811134 970.014282,104.792198 969.997925,106.773018 
	C969.667480,146.879883 969.451782,186.988327 968.907471,227.092331 
	C968.788391,235.865265 965.414795,243.796692 959.819824,250.694260 
	C951.567627,260.867676 930.967773,261.190216 919.414307,255.709625 
	C916.210632,254.189926 913.094666,252.485214 909.272583,250.523605 
	C909.154907,252.960281 909.013428,254.563019 909.010315,256.166016 
	C908.990173,266.663239 909.256531,277.169678 908.882019,287.653595 
	C908.717041,292.271973 910.502930,293.931488 914.675659,295.067200 
	C930.028992,299.246002 945.621826,299.221375 961.030212,296.792511 
	C979.524048,293.877258 994.933105,285.217621 1005.611877,269.054993 
	C1016.433594,252.676056 1018.084900,234.177170 1019.000000,214.436890 
M419.804474,294.855438 
	C435.739899,294.855438 451.675354,294.855438 467.676697,294.855438 
	C467.676697,229.728867 467.676697,165.018814 467.676697,100.377716 
	C451.298035,100.377716 435.245483,100.377716 419.000000,100.377716 
	C419.000000,102.577858 419.000000,104.400925 419.000000,106.223991 
	C419.000000,147.048096 418.984558,187.872208 419.006256,228.696289 
	C419.017853,250.522156 419.093475,272.347992 419.804474,294.855438 
M116.055283,298.720856 
	C102.314293,323.950958 117.355423,354.273895 146.240814,357.882721 
	C141.773178,351.605560 140.052765,344.499817 133.616028,339.847656 
	C124.665955,333.379059 120.490067,320.610748 124.626526,309.516205 
	C128.699478,298.592010 140.153473,290.296234 151.983292,291.038300 
	C164.179962,291.803345 175.047028,301.045593 177.009140,312.345001 
	C177.787186,316.825623 177.998932,321.506226 179.501404,325.728241 
	C180.779282,329.319214 183.540344,332.382385 185.924652,336.116760 
	C189.941895,327.857239 190.570465,319.661163 189.189392,310.743774 
	C186.072449,290.618225 163.295990,274.458130 142.231323,280.078918 
	C138.309326,281.125458 136.791519,279.611023 135.121490,276.546356 
	C129.733994,266.659637 124.118980,256.896301 118.539490,247.115158 
	C116.982231,244.385208 115.834457,243.296524 112.272545,245.878922 
	C104.363838,251.612732 94.993622,254.721649 85.227631,254.869049 
	C67.412987,255.137878 52.358402,248.746216 40.987629,234.524872 
	C26.721054,216.681824 24.329449,197.176941 34.293610,176.927292 
	C38.303688,168.777847 45.114929,162.006775 51.060501,154.061539 
	C47.634151,148.206024 43.461800,141.075592 39.287842,133.942429 
	C7.944144,153.056854 -6.681957,196.492294 10.273910,233.612411 
	C29.051653,274.721039 77.615196,291.197723 117.634262,272.200897 
	C120.496628,277.209412 123.369530,282.236389 125.775635,286.446564 
	C122.303139,290.773407 119.371643,294.426178 116.055283,298.720856 
M119.571381,184.077362 
	C110.745598,163.243561 87.093117,155.755798 68.861198,162.689850 
	C42.603554,172.676300 35.775978,202.689102 50.311035,223.989548 
	C64.073738,244.158142 96.402077,245.985489 112.553284,227.738144 
	C123.604630,215.252533 126.025154,200.560898 119.571381,184.077362 
M170.630386,326.078857 
	C171.061539,325.339722 172.044403,324.212494 171.839294,323.920898 
	C169.551682,320.668915 168.424667,316.824066 166.498306,313.473511 
	C163.818054,308.811737 160.073013,304.762115 156.632614,300.252380 
	C156.097015,300.501648 155.063705,300.969391 154.041855,301.460938 
	C151.994766,302.445740 150.415390,303.817902 147.692856,304.053375 
	C143.943298,304.377686 141.313339,307.685974 139.495102,311.221069 
	C139.199463,311.795837 137.656387,312.344025 137.112656,312.068939 
	C134.846939,310.922638 134.736603,311.339447 133.627716,313.839294 
	C131.372284,318.923828 135.182404,319.458160 137.717392,321.152771 
	C136.714569,323.144684 134.779541,325.268158 139.019867,325.662506 
	C139.530701,325.709991 140.178680,327.021942 140.306595,327.820953 
	C140.510437,329.094208 139.944351,330.581543 140.389481,331.707245 
	C141.473969,334.449921 142.781311,337.149567 144.399033,339.602722 
	C144.774643,340.172272 146.756653,339.772614 147.983459,339.653534 
	C148.618637,339.591888 149.236679,339.203705 149.831696,338.902313 
	C153.685928,336.949921 159.745560,335.823364 160.885101,332.828857 
	C162.815445,327.756287 165.552734,330.058533 168.313019,329.877777 
	C168.864685,328.789612 169.433823,327.666992 170.630386,326.078857 
M154.848526,51.010777 
	C159.172089,51.007183 163.511780,50.767334 167.815002,51.061459 
	C172.879654,51.407627 178.251328,49.402241 182.959656,53.636482 
	C183.995895,54.568371 188.736511,53.457451 189.627945,51.987480 
	C190.965775,49.781376 190.510742,46.153835 186.970840,45.170315 
	C185.178833,44.672428 183.044296,45.169449 181.109558,45.488842 
	C179.091156,45.822052 177.144836,46.837025 175.135712,46.939316 
	C165.897659,47.409641 156.650253,47.804417 147.402603,47.909538 
	C144.758820,47.939594 141.462585,49.500607 139.626312,45.495094 
	C138.923828,43.962734 136.535583,42.090096 135.127670,42.249237 
	C132.889755,42.502186 130.829773,44.329117 128.694519,45.490280 
	C131.266739,46.505630 134.199600,45.768150 134.786224,46.629177 
	C137.852066,51.129074 141.049683,55.792603 142.744736,60.884190 
	C143.880157,64.294777 144.751709,66.321457 148.453354,65.975418 
	C151.341583,65.705399 153.972778,65.177612 154.053848,61.245537 
	C154.135010,57.309025 153.178375,54.803852 148.586777,54.908401 
	C147.366760,54.936180 146.121719,53.864365 143.684723,52.744312 
	C148.166840,52.012012 151.044876,51.541794 154.848526,51.010777 
M148.649612,39.000015 
	C153.416656,39.331314 158.197098,39.533844 162.947189,40.028015 
	C168.323471,40.587326 169.448822,39.481804 168.205795,33.754536 
	C162.282104,34.498875 156.327759,35.636127 150.333359,35.916237 
	C139.157852,36.438454 136.118942,37.163231 134.659866,41.023834 
	C139.088562,40.337429 143.402634,39.668793 148.649612,39.000015 
z"/>
<path fill="#BDBEC0" opacity="1.000000" stroke="none" 
	d="
M697.676208,151.691559 
	C712.294922,121.711823 736.459900,104.831039 768.363831,99.100868 
	C790.732666,95.083252 813.213928,94.990944 835.021973,102.921242 
	C867.326782,114.668549 887.562805,137.666031 894.603638,170.971878 
	C900.163025,197.269882 898.080933,223.385513 885.086365,247.755844 
	C876.688416,263.505676 864.654724,275.694336 849.105469,284.445801 
	C832.132019,293.998871 813.955261,297.971039 794.457458,298.204987 
	C775.397339,298.433685 757.024048,296.139832 739.901855,287.741608 
	C728.606384,282.201385 718.591125,274.724792 710.215576,264.967621 
	C699.689026,252.704758 692.676453,238.879562 689.651367,223.142746 
	C687.057007,209.646225 686.811890,196.027405 688.692017,182.319778 
	C690.144287,171.731339 692.739929,161.592606 697.676208,151.691559 
M760.042358,146.458572 
	C749.414001,155.757782 742.543762,167.473328 740.621582,181.295395 
	C739.272217,190.998215 739.203979,201.101303 740.200012,210.858627 
	C741.894409,227.457596 749.179810,241.372940 763.333374,251.174957 
	C773.107239,257.943787 783.958984,259.416168 795.498291,259.066864 
	C814.776855,258.483246 829.235413,249.997696 837.918701,232.899857 
	C848.091919,212.868149 847.457275,191.845932 841.343628,170.809250 
	C837.219604,156.618851 828.831299,145.519913 814.822693,139.962021 
	C795.845642,132.432892 777.579590,134.285461 760.042358,146.458572 
z"/>
<path fill="#FCDE05" opacity="1.000000" stroke="none" 
	d="
M669.000000,274.982544 
	C669.000000,288.441071 669.176453,289.106354 656.789673,292.392059 
	C646.275635,295.181000 635.348877,296.827118 624.498779,297.813263 
	C614.748352,298.699432 604.820312,298.526245 595.029358,297.900299 
	C566.800537,296.095581 541.818420,286.592651 523.135986,264.450867 
	C512.298889,251.607086 506.077881,236.533966 503.877533,219.660049 
	C501.359985,200.354065 502.359344,181.576431 508.882446,163.104065 
	C514.851501,146.200638 525.312073,132.814575 538.944092,121.375526 
	C552.721619,109.814445 568.705872,103.244072 585.847656,99.244179 
	C592.664307,97.653549 599.852417,97.245949 606.889404,97.085342 
	C627.667358,96.611107 648.479065,96.285263 668.764771,103.724007 
	C668.764771,117.708466 668.764771,132.155731 668.764771,146.613373 
	C661.395996,144.033951 654.231262,140.858688 646.737793,139.031021 
	C626.208496,134.023880 605.623596,133.320435 586.192810,143.083664 
	C568.253235,152.097580 557.938721,166.983185 554.919189,187.043945 
	C552.350769,204.107620 554.565247,220.155777 564.316956,234.547714 
	C573.204895,247.664978 585.949768,255.496948 601.539246,257.911102 
	C623.847778,261.365784 645.364502,258.471008 665.654175,248.112305 
	C666.492981,247.684052 667.413147,247.415192 669.000000,246.798035 
	C669.000000,256.339874 669.000000,265.412903 669.000000,274.982544 
z"/>
<path fill="#FCDE05" opacity="1.000000" stroke="none" 
	d="
M382.999695,250.437744 
	C383.000000,261.889862 382.865417,272.890900 383.080078,283.885132 
	C383.146484,287.285919 381.955078,288.905640 378.827362,290.018616 
	C363.378052,295.516113 347.489258,298.027863 331.102234,298.048798 
	C314.443085,298.070099 297.904999,298.143341 281.665588,293.134277 
	C264.395416,287.807312 249.600754,278.895172 237.846313,265.251007 
	C226.938354,252.589417 220.370209,237.784851 218.037170,221.209534 
	C217.146164,214.879211 215.857239,208.450958 216.167084,202.136917 
	C216.855698,188.104401 218.079453,174.058197 223.601608,160.834137 
	C237.990509,126.376701 264.720306,106.521957 300.340851,99.480400 
	C316.695435,96.247391 333.996368,96.852112 350.824921,97.309341 
	C361.561127,97.601051 372.218018,100.811882 382.868774,102.706467 
	C382.868774,117.973419 382.868774,132.279190 382.868774,146.645035 
	C375.423218,144.037552 368.262024,140.870438 360.774506,139.033737 
	C340.065552,133.953796 319.245270,133.306137 299.760315,143.231857 
	C282.115753,152.220062 271.866394,167.110901 268.914886,187.018829 
	C266.385132,204.082123 268.542267,220.134445 278.304047,234.532837 
	C287.197418,247.650406 299.935577,255.491516 315.524536,257.909882 
	C337.834595,261.370911 359.353607,258.468964 379.647308,248.116776 
	C380.486877,247.688492 381.406708,247.417511 382.729462,246.901474 
	C382.839050,248.152786 382.919220,249.068405 382.999695,250.437744 
z"/>
<path fill="#BDBEC0" opacity="1.000000" stroke="none" 
	d="
M1019.000000,214.925919 
	C1018.084900,234.177170 1016.433594,252.676056 1005.611877,269.054993 
	C994.933105,285.217621 979.524048,293.877258 961.030212,296.792511 
	C945.621826,299.221375 930.028992,299.246002 914.675659,295.067200 
	C910.502930,293.931488 908.717041,292.271973 908.882019,287.653595 
	C909.256531,277.169678 908.990173,266.663239 909.010315,256.166016 
	C909.013428,254.563019 909.154907,252.960281 909.272583,250.523605 
	C913.094666,252.485214 916.210632,254.189926 919.414307,255.709625 
	C930.967773,261.190216 951.567627,260.867676 959.819824,250.694260 
	C965.414795,243.796692 968.788391,235.865265 968.907471,227.092331 
	C969.451782,186.988327 969.667480,146.879883 969.997925,106.773018 
	C970.014282,104.792198 970.000000,102.811134 970.000000,100.418182 
	C986.254028,100.418182 1002.156982,100.418182 1019.000000,100.418182 
	C1019.000000,138.322662 1019.000000,176.379776 1019.000000,214.925919 
z"/>
<path fill="#FCDE05" opacity="1.000000" stroke="none" 
	d="
M129.927185,88.905708 
	C130.446854,90.270798 130.595810,92.016235 131.544632,92.940994 
	C139.360687,100.558815 148.995544,105.255730 159.710968,104.751030 
	C176.452057,103.962524 188.833130,95.447678 196.051987,79.930817 
	C196.640366,78.666031 198.391556,77.219521 199.686493,77.134254 
	C204.649307,76.807526 209.646408,77.002052 214.689056,77.002052 
	C208.451767,110.234947 173.739212,129.399445 142.438232,119.277428 
	C138.754776,124.924408 135.022141,130.646759 131.954544,135.349609 
	C138.681839,143.815994 145.617264,151.638351 151.500717,160.184921 
	C158.390015,170.192612 161.524658,181.722885 161.977432,193.879974 
	C162.358673,204.115219 162.131943,214.297775 159.017990,224.225998 
	C155.182785,236.453705 148.445358,246.927383 140.060852,256.460266 
	C137.673782,259.174286 136.402512,257.900330 135.035828,255.372101 
	C131.546539,248.917297 127.887695,242.554153 124.146736,235.887070 
	C129.891998,228.304565 134.449265,219.913132 136.181198,209.961502 
	C138.931732,194.156982 135.585159,180.023666 125.872322,167.431259 
	C113.704178,151.655579 97.229271,145.075409 77.672165,146.138885 
	C73.058090,146.389771 68.575272,148.562317 63.949627,149.390213 
	C62.547897,149.641098 60.159065,148.800552 59.438751,147.678818 
	C56.093792,142.469772 53.329456,136.890244 50.040092,131.642136 
	C48.416000,129.050934 48.816887,128.042252 51.593868,126.940605 
	C72.008667,118.841888 92.428917,118.798569 112.986420,126.381828 
	C114.260307,126.851746 116.767662,126.725319 117.330879,125.919098 
	C120.487854,121.400070 123.223785,116.586891 126.081223,111.910568 
	C102.610924,91.582375 95.811150,66.837936 109.328918,39.108082 
	C121.026909,15.111258 143.712387,6.331532 166.585449,9.282362 
	C191.464783,12.492017 209.698792,28.998171 215.018921,54.979446 
	C209.503464,54.979446 204.126709,55.154499 198.781494,54.822285 
	C197.788666,54.760578 196.583252,52.793991 196.049911,51.474541 
	C189.499802,35.270401 174.813919,25.415155 158.143600,26.248423 
	C139.491241,27.180765 124.501183,39.095116 120.949310,59.230408 
	C118.912735,70.775620 121.651901,80.826233 129.689301,89.255951 
	C129.966125,88.955261 129.927185,88.905708 129.927185,88.905708 
z"/>
<path fill="#FCDE05" opacity="1.000000" stroke="none" 
	d="
M419.472351,294.514648 
	C419.093475,272.347992 419.017853,250.522156 419.006256,228.696289 
	C418.984558,187.872208 419.000000,147.048096 419.000000,106.223991 
	C419.000000,104.400925 419.000000,102.577858 419.000000,100.377716 
	C435.245483,100.377716 451.298035,100.377716 467.676697,100.377716 
	C467.676697,165.018814 467.676697,229.728867 467.676697,294.855438 
	C451.675354,294.855438 435.739899,294.855438 419.472351,294.514648 
z"/>
<path fill="#FBDD07" opacity="1.000000" stroke="none" 
	d="
M116.247711,298.399902 
	C119.371643,294.426178 122.303139,290.773407 125.775635,286.446564 
	C123.369530,282.236389 120.496628,277.209412 117.634262,272.200897 
	C77.615196,291.197723 29.051653,274.721039 10.273910,233.612411 
	C-6.681957,196.492294 7.944144,153.056854 39.287842,133.942429 
	C43.461800,141.075592 47.634151,148.206024 51.060501,154.061539 
	C45.114929,162.006775 38.303688,168.777847 34.293610,176.927292 
	C24.329449,197.176941 26.721054,216.681824 40.987629,234.524872 
	C52.358402,248.746216 67.412987,255.137878 85.227631,254.869049 
	C94.993622,254.721649 104.363838,251.612732 112.272545,245.878922 
	C115.834457,243.296524 116.982231,244.385208 118.539490,247.115158 
	C124.118980,256.896301 129.733994,266.659637 135.121490,276.546356 
	C136.791519,279.611023 138.309326,281.125458 142.231323,280.078918 
	C163.295990,274.458130 186.072449,290.618225 189.189392,310.743774 
	C190.570465,319.661163 189.941895,327.857239 185.924652,336.116760 
	C183.540344,332.382385 180.779282,329.319214 179.501404,325.728241 
	C177.998932,321.506226 177.787186,316.825623 177.009140,312.345001 
	C175.047028,301.045593 164.179962,291.803345 151.983292,291.038300 
	C140.153473,290.296234 128.699478,298.592010 124.626526,309.516205 
	C120.490067,320.610748 124.665955,333.379059 133.616028,339.847656 
	C140.052765,344.499817 141.773178,351.605560 146.240814,357.882721 
	C117.355423,354.273895 102.314293,323.950958 116.247711,298.399902 
M10.266536,182.289780 
	C10.473288,182.850784 10.680039,183.411789 10.886787,183.972794 
	C11.242545,183.395218 11.598302,182.817657 12.358828,181.692429 
	C16.006090,182.834259 19.617674,184.122574 23.323238,185.025040 
	C24.378931,185.282150 25.707695,184.418015 26.911232,184.068039 
	C26.306705,183.043564 25.946814,181.509918 25.055763,181.081818 
	C20.959141,179.113632 16.714218,177.454147 11.634284,175.308792 
	C11.396076,177.473114 11.145923,179.745956 10.266536,182.289780 
M32.993896,236.799866 
	C32.986874,238.117477 33.463215,240.289322 32.893147,240.611893 
	C29.583439,242.484695 26.027536,243.922424 21.703108,245.896011 
	C24.033503,246.909912 26.935745,249.323196 28.615908,248.656525 
	C31.802422,247.392151 34.958385,244.781891 36.772797,241.883072 
	C37.633385,240.508118 35.376671,237.181992 34.406387,234.016586 
	C32.967903,229.021927 28.932613,233.119659 26.203527,230.974854 
	C26.087187,236.576782 29.827225,235.723358 32.993896,236.799866 
M19.152636,210.594711 
	C24.105721,207.300797 24.737173,205.507446 22.459034,203.574554 
	C19.835371,205.164581 17.418194,207.793777 15.078053,207.726913 
	C12.638252,207.657211 10.272713,204.988251 7.041607,202.923294 
	C7.455584,204.953461 7.240406,207.380493 8.350044,208.644913 
	C10.996263,211.660263 14.417166,213.438431 19.152636,210.594711 
M20.932747,224.270645 
	C23.586496,223.640762 27.690264,224.400940 25.824503,219.106049 
	C20.725904,221.006577 15.818664,222.835770 10.911422,224.664963 
	C10.883153,225.253876 10.854884,225.842773 10.826614,226.431686 
	C12.133685,226.831100 13.590254,227.799606 14.714808,227.504196 
	C16.685844,226.986420 18.453270,225.693542 20.932747,224.270645 
M7.141448,198.759811 
	C7.289337,199.098953 7.437225,199.438095 7.585114,199.777237 
	C7.926690,199.436035 8.268267,199.094849 8.609849,198.753662 
	C8.268789,198.602524 7.927730,198.451401 7.141448,198.759811 
z"/>
<path fill="#FCDE05" opacity="1.000000" stroke="none" 
	d="
M119.761093,184.421371 
	C126.025154,200.560898 123.604630,215.252533 112.553284,227.738144 
	C96.402077,245.985489 64.073738,244.158142 50.311035,223.989548 
	C35.775978,202.689102 42.603554,172.676300 68.861198,162.689850 
	C87.093117,155.755798 110.745598,163.243561 119.761093,184.421371 
z"/>
<path fill="#FCDE05" opacity="1.000000" stroke="none" 
	d="
M170.316666,326.311615 
	C169.433823,327.666992 168.864685,328.789612 168.313019,329.877777 
	C165.552734,330.058533 162.815445,327.756287 160.885101,332.828857 
	C159.745560,335.823364 153.685928,336.949921 149.831696,338.902313 
	C149.236679,339.203705 148.618637,339.591888 147.983459,339.653534 
	C146.756653,339.772614 144.774643,340.172272 144.399033,339.602722 
	C142.781311,337.149567 141.473969,334.449921 140.389481,331.707245 
	C139.944351,330.581543 140.510437,329.094208 140.306595,327.820953 
	C140.178680,327.021942 139.530701,325.709991 139.019867,325.662506 
	C134.779541,325.268158 136.714569,323.144684 137.717392,321.152771 
	C135.182404,319.458160 131.372284,318.923828 133.627716,313.839294 
	C134.736603,311.339447 134.846939,310.922638 137.112656,312.068939 
	C137.656387,312.344025 139.199463,311.795837 139.495102,311.221069 
	C141.313339,307.685974 143.943298,304.377686 147.692856,304.053375 
	C150.415390,303.817902 151.994766,302.445740 154.041855,301.460938 
	C155.063705,300.969391 156.097015,300.501648 156.632614,300.252380 
	C160.073013,304.762115 163.818054,308.811737 166.498306,313.473511 
	C168.424667,316.824066 169.551682,320.668915 171.839294,323.920898 
	C172.044403,324.212494 171.061539,325.339722 170.316666,326.311615 
z"/>
<path fill="#FCDE05" opacity="1.000000" stroke="none" 
	d="
M127.990479,56.995979 
	C128.250885,56.823418 128.698837,56.689487 128.743546,56.472488 
	C129.402939,53.271637 131.197693,50.752728 134.408890,52.540924 
	C135.571991,53.188606 135.355881,57.120213 135.011917,59.441174 
	C134.664581,61.784924 133.378677,63.989578 132.217850,66.996132 
	C150.581863,66.996132 167.702271,67.051041 184.820694,66.891808 
	C186.188599,66.879074 187.694168,65.563705 188.872620,64.548309 
	C191.563904,62.229412 194.710281,61.880894 196.650223,64.541939 
	C197.797943,66.116264 197.659454,69.629807 196.671524,71.528366 
	C195.130432,74.490005 192.271484,75.105309 189.149673,72.756760 
	C187.837311,71.769478 185.945374,71.101288 184.304688,71.075783 
	C174.486374,70.923149 164.662476,70.879395 154.844528,71.043076 
	C148.414825,71.150261 141.896942,71.147461 135.618362,72.290909 
	C133.464798,72.683113 131.917542,76.404541 129.353073,79.497856 
	C138.430191,80.077980 145.633331,80.626221 152.846863,80.909119 
	C153.991135,80.953987 155.148865,79.722435 156.359436,79.224640 
	C158.264374,78.441315 160.398682,76.904716 162.114563,77.256111 
	C165.307938,77.910080 167.898956,80.024506 166.904373,84.018990 
	C166.234543,86.709145 161.768234,87.896080 158.351532,86.729454 
	C155.959457,85.912682 153.432678,85.254204 150.924561,85.059395 
	C144.346268,84.548454 137.740067,84.407928 131.155182,83.967270 
	C126.883369,83.681404 126.809273,82.374786 127.666771,78.228531 
	C129.056488,71.508888 131.167664,64.596710 128.021698,57.337280 
	C128.030304,56.954494 127.990479,56.995979 127.990479,56.995979 
z"/>
<path fill="#FCDE05" opacity="1.000000" stroke="none" 
	d="
M154.385727,51.041176 
	C151.044876,51.541794 148.166840,52.012012 143.684723,52.744312 
	C146.121719,53.864365 147.366760,54.936180 148.586777,54.908401 
	C153.178375,54.803852 154.135010,57.309025 154.053848,61.245537 
	C153.972778,65.177612 151.341583,65.705399 148.453354,65.975418 
	C144.751709,66.321457 143.880157,64.294777 142.744736,60.884190 
	C141.049683,55.792603 137.852066,51.129074 134.786224,46.629177 
	C134.199600,45.768150 131.266739,46.505630 128.694519,45.490280 
	C130.829773,44.329117 132.889755,42.502186 135.127670,42.249237 
	C136.535583,42.090096 138.923828,43.962734 139.626312,45.495094 
	C141.462585,49.500607 144.758820,47.939594 147.402603,47.909538 
	C156.650253,47.804417 165.897659,47.409641 175.135712,46.939316 
	C177.144836,46.837025 179.091156,45.822052 181.109558,45.488842 
	C183.044296,45.169449 185.178833,44.672428 186.970840,45.170315 
	C190.510742,46.153835 190.965775,49.781376 189.627945,51.987480 
	C188.736511,53.457451 183.995895,54.568371 182.959656,53.636482 
	C178.251328,49.402241 172.879654,51.407627 167.815002,51.061459 
	C163.511780,50.767334 159.172089,51.007183 154.385727,51.041176 
z"/>
<path fill="#FCDE05" opacity="1.000000" stroke="none" 
	d="
M129.987595,88.978325 
	C131.017914,88.358971 132.140320,87.031601 133.018524,87.177200 
	C145.590866,89.261604 158.180954,89.649101 170.813019,87.953751 
	C172.223221,87.764481 173.540131,86.687386 174.933380,86.608856 
	C177.092545,86.487160 179.319443,86.706017 181.416183,87.205956 
	C181.756439,87.287086 182.105865,90.258392 181.533356,90.697617 
	C179.714905,92.092743 177.434662,93.871826 175.382538,93.811584 
	C164.540817,93.493324 153.698227,92.842598 142.890778,91.905411 
	C138.765289,91.547668 134.732422,90.121834 130.292267,89.044228 
	C129.927185,88.905708 129.966125,88.955261 129.987595,88.978325 
z"/>
<path fill="#FCDE05" opacity="1.000000" stroke="none" 
	d="
M148.183167,39.000084 
	C143.402634,39.668793 139.088562,40.337429 134.659866,41.023834 
	C136.118942,37.163231 139.157852,36.438454 150.333359,35.916237 
	C156.327759,35.636127 162.282104,34.498875 168.205795,33.754536 
	C169.448822,39.481804 168.323471,40.587326 162.947189,40.028015 
	C158.197098,39.533844 153.416656,39.331314 148.183167,39.000084 
z"/>
<path fill="#FCDE05" opacity="1.000000" stroke="none" 
	d="
M139.070709,94.915993 
	C141.974045,94.642059 144.892822,94.476440 147.776657,94.065659 
	C151.071686,93.596298 153.546204,95.940506 153.565979,99.765488 
	C159.911926,98.862541 159.911926,98.862541 161.941727,101.626007 
	C153.286850,103.160942 145.923096,100.144547 138.745544,95.738983 
	C138.835037,95.173492 138.952866,95.044739 139.070709,94.915993 
z"/>
<path fill="#FCDE05" opacity="1.000000" stroke="none" 
	d="
M128.046661,56.930847 
	C127.707191,60.393093 127.260132,63.872894 127.026817,67.366974 
	C126.864456,69.798424 126.995567,72.249481 126.995567,74.919006 
	C122.355415,72.325096 123.060982,57.054539 128.577789,48.123661 
	C128.316879,51.749069 128.156906,53.971951 127.993698,56.595406 
	C127.990479,56.995979 128.030304,56.954494 128.046661,56.930847 
z"/>
<path fill="#FCDE05" opacity="1.000000" stroke="none" 
	d="
M143.323029,33.355957 
	C146.692841,32.094730 150.062653,30.833506 154.383682,29.216274 
	C152.294128,35.402042 148.374344,34.244289 144.277466,33.853706 
	C143.589890,33.580482 143.456467,33.468224 143.323029,33.355957 
z"/>
<path fill="#FCDE05" opacity="1.000000" stroke="none" 
	d="
M138.514374,95.467781 
	C138.037521,95.166550 137.763489,94.699783 137.489456,94.233017 
	C137.935684,94.282295 138.381927,94.331566 138.949432,94.648422 
	C138.952866,95.044739 138.835037,95.173492 138.514374,95.467781 
z"/>
<path fill="#FCDE05" opacity="1.000000" stroke="none" 
	d="
M143.897537,33.887836 
	C143.564362,34.323254 143.056976,34.563576 142.549591,34.803902 
	C142.663696,34.439041 142.777802,34.074181 143.107483,33.532639 
	C143.456467,33.468224 143.589890,33.580482 143.897537,33.887836 
z"/>
<path fill="#FFFFFF" opacity="1.000000" stroke="none" 
	d="
M760.303223,146.211426 
	C777.579590,134.285461 795.845642,132.432892 814.822693,139.962021 
	C828.831299,145.519913 837.219604,156.618851 841.343628,170.809250 
	C847.457275,191.845932 848.091919,212.868149 837.918701,232.899857 
	C829.235413,249.997696 814.776855,258.483246 795.498291,259.066864 
	C783.958984,259.416168 773.107239,257.943787 763.333374,251.174957 
	C749.179810,241.372940 741.894409,227.457596 740.200012,210.858627 
	C739.203979,201.101303 739.272217,190.998215 740.621582,181.295395 
	C742.543762,167.473328 749.414001,155.757782 760.303223,146.211426 
z"/>
<path fill="#E7E7E8" opacity="1.000000" stroke="none" 
	d="
M34.532204,234.739822 
	C35.376671,237.181992 37.633385,240.508118 36.772797,241.883072 
	C34.958385,244.781891 31.802422,247.392151 28.615908,248.656525 
	C26.935745,249.323196 24.033503,246.909912 21.703108,245.896011 
	C26.027536,243.922424 29.583439,242.484695 32.893147,240.611893 
	C33.463215,240.289322 32.986874,238.117477 33.179806,236.341919 
	C33.754547,235.502594 34.143375,235.121201 34.532204,234.739822 
z"/>
<path fill="#D8D9DA" opacity="1.000000" stroke="none" 
	d="
M10.895769,182.018799 
	C11.145923,179.745956 11.396076,177.473114 11.634284,175.308792 
	C16.714218,177.454147 20.959141,179.113632 25.055763,181.081818 
	C25.946814,181.509918 26.306705,183.043564 26.911232,184.068054 
	C25.707695,184.418015 24.378931,185.282150 23.323238,185.025040 
	C19.617674,184.122574 16.006090,182.834259 11.892803,181.902649 
	C11.249777,182.081528 11.072774,182.050171 10.895769,182.018799 
z"/>
<path fill="#E7E8E9" opacity="1.000000" stroke="none" 
	d="
M18.851639,210.792084 
	C14.417166,213.438431 10.996263,211.660263 8.350044,208.644913 
	C7.240406,207.380493 7.455584,204.953461 7.041607,202.923294 
	C10.272713,204.988251 12.638252,207.657211 15.078053,207.726913 
	C17.418194,207.793777 19.835371,205.164581 22.459034,203.574554 
	C24.737173,205.507446 24.105721,207.300797 18.851639,210.792084 
z"/>
<path fill="#EBEBEC" opacity="1.000000" stroke="none" 
	d="
M20.619368,224.498001 
	C18.453270,225.693542 16.685844,226.986420 14.714808,227.504196 
	C13.590254,227.799606 12.133685,226.831100 10.826614,226.431686 
	C10.854884,225.842773 10.883153,225.253876 10.911422,224.664963 
	C15.818664,222.835770 20.725904,221.006577 25.824503,219.106049 
	C27.690264,224.400940 23.586496,223.640762 20.619368,224.498001 
z"/>
<path fill="#B9B8B2" opacity="1.000000" stroke="none" 
	d="
M34.469296,234.378204 
	C34.143375,235.121201 33.754547,235.502594 32.986732,236.039932 
	C29.827225,235.723358 26.087187,236.576782 26.203527,230.974854 
	C28.932613,233.119659 32.967903,229.021927 34.469296,234.378204 
z"/>
<path fill="#F1F1F1" opacity="1.000000" stroke="none" 
	d="
M10.581153,182.154297 
	C11.072774,182.050171 11.249777,182.081528 11.690419,182.176483 
	C11.598302,182.817657 11.242545,183.395218 10.886789,183.972794 
	C10.680039,183.411789 10.473288,182.850784 10.581153,182.154297 
z"/>
<path fill="#545348" opacity="1.000000" stroke="none" 
	d="
M7.364059,198.530045 
	C7.927730,198.451401 8.268789,198.602524 8.609846,198.753662 
	C8.268267,199.094849 7.926690,199.436035 7.585114,199.777237 
	C7.437225,199.438095 7.289337,199.098953 7.364059,198.530045 
z"/>
</svg>