<?xml version="1.0" standalone="no"?>
<!DOCTYPE svg PUBLIC "-//W3C//DTD SVG 20010904//EN"
 "http://www.w3.org/TR/2001/REC-SVG-20010904/DTD/svg10.dtd">
<svg version="1.0" xmlns="http://www.w3.org/2000/svg"
 width="401.000000pt" height="401.000000pt" viewBox="0 0 401.000000 401.000000"
 preserveAspectRatio="xMidYMid meet">
<metadata>
Created by potrace 1.14, written by Peter Selinger 2001-2017
</metadata>
<g transform="translate(0.000000,401.000000) scale(0.100000,-0.100000)"
fill="#000000" stroke="none">
<path d="M2492 3988 c-310 -42 -553 -318 -553 -629 0 -186 76 -360 212 -483
l60 -54 -63 -94 -63 -95 -57 23 c-206 80 -467 76 -671 -9 -35 -15 -37 -18 -26
-39 11 -21 119 -209 124 -216 1 -1 38 7 81 19 276 76 554 -36 707 -284 57 -93
79 -174 83 -297 5 -151 -22 -248 -101 -365 l-42 -64 53 -91 c30 -51 54 -95 54
-99 0 -3 9 -17 20 -31 l19 -25 36 35 c89 86 176 244 217 395 22 80 33 296 18
360 -5 22 -11 54 -15 72 -25 147 -137 339 -266 457 l-70 63 66 102 c52 80 70
101 83 96 36 -14 130 -25 198 -24 162 4 314 69 430 184 93 93 133 157 170 273
l13 42 -98 0 -98 0 -33 -66 c-72 -141 -225 -238 -384 -243 -198 -6 -369 111
-441 302 -19 52 -23 79 -21 153 3 105 8 128 45 203 54 106 168 198 286 230
214 56 444 -56 530 -259 10 -25 20 -47 22 -50 7 -8 184 -6 189 2 3 5 -2 32
-12 61 -98 301 -391 486 -702 445z"/>
<path d="M2485 3750 c-11 -5 -38 -15 -60 -24 l-40 -16 54 4 c53 4 77 15 70 34
-2 5 -13 6 -24 2z"/>
<path d="M2619 3706 c-5 -6 -66 -13 -166 -21 -83 -6 -144 -24 -151 -44 -3 -8
0 -11 5 -8 38 23 265 37 303 18 37 -18 83 1 78 32 -2 16 -11 23 -33 25 -17 2
-33 1 -36 -2z m31 -26 c0 -5 -5 -10 -11 -10 -5 0 -7 5 -4 10 3 6 8 10 11 10 2
0 4 -4 4 -10z"/>
<path d="M2285 3610 c-12 -4 -27 -15 -35 -25 -13 -15 -11 -16 23 -10 22 4 37
3 37 -2 0 -6 19 -39 42 -74 23 -35 43 -76 43 -91 2 -57 60 -78 104 -37 18 17
22 28 17 52 -8 37 -20 47 -63 47 -22 0 -36 6 -43 20 -6 11 -9 20 -8 21 2 0 94
3 205 5 199 5 203 4 233 -18 29 -21 33 -21 58 -7 35 19 36 55 0 82 -25 19 -27
19 -60 2 -28 -14 -68 -18 -254 -20 l-221 -4 -11 24 c-14 30 -42 45 -67 35z
m600 -69 c3 -5 1 -12 -4 -15 -5 -3 -11 1 -15 9 -6 16 9 21 19 6z m-415 -131
c0 -5 -7 -10 -15 -10 -8 0 -15 5 -15 10 0 6 7 10 15 10 8 0 15 -4 15 -10z"/>
<path d="M2207 3513 c-37 -133 -40 -278 -6 -257 7 4 9 29 4 73 -4 41 -2 92 6
130 6 34 9 64 6 67 -3 3 -7 -3 -10 -13z"/>
<path d="M2247 3480 c-10 -15 -13 -45 -11 -113 3 -91 -10 -177 -27 -177 -5 0
-9 -7 -9 -15 0 -23 54 -32 200 -34 99 -1 141 -6 157 -16 68 -45 146 23 85 73
-23 18 -68 15 -89 -6 -18 -18 -23 -19 -257 -13 -48 1 -48 1 -42 29 4 15 10 38
12 52 l6 25 317 3 c276 2 320 1 331 -13 19 -23 66 -19 84 7 21 30 20 54 -4 78
-26 26 -41 25 -76 -2 -27 -22 -35 -22 -341 -25 l-313 -3 0 24 c0 14 9 41 21
61 14 23 19 44 15 60 -8 31 -39 33 -59 5z m725 -165 c0 -5 -5 -11 -11 -13 -6
-2 -11 4 -11 13 0 9 5 15 11 13 6 -2 11 -8 11 -13z m-362 -155 c0 -5 -4 -10
-10 -10 -5 0 -10 5 -10 10 0 6 5 10 10 10 6 0 10 -4 10 -10z"/>
<path d="M2751 3102 c-21 -14 -52 -17 -190 -18 -91 -1 -199 3 -240 8 -40 5
-76 6 -79 3 -3 -2 12 -12 34 -21 30 -13 81 -18 214 -21 192 -4 222 -6 263 -18
58 -16 107 54 51 75 -30 12 -24 13 -53 -8z m39 -32 c0 -5 -4 -10 -10 -10 -5 0
-10 5 -10 10 0 6 5 10 10 10 6 0 10 -4 10 -10z"/>
<path d="M2340 3011 c0 -11 103 -52 117 -47 8 3 12 2 8 -3 -5 -10 29 -19 80
-22 46 -2 55 0 55 12 0 8 -17 9 -50 6 -27 -3 -52 -1 -55 4 -4 5 -1 9 4 9 17 0
13 21 -6 36 -21 15 -60 18 -65 5 -2 -6 -21 -6 -45 -2 -24 5 -43 6 -43 2z"/>
<path d="M1140 2517 c-104 -82 -210 -217 -263 -338 -54 -122 -71 -214 -71
-369 0 -161 18 -252 74 -377 105 -231 322 -419 567 -492 184 -55 413 -45 587
25 33 13 63 24 67 24 4 0 29 -38 56 -85 l49 -85 -47 -50 c-172 -178 -170 -453
5 -625 65 -64 147 -110 215 -121 l42 -7 -30 49 c-17 27 -38 63 -47 79 -9 17
-40 48 -68 71 -34 26 -61 60 -81 99 -26 52 -30 69 -30 144 0 75 4 93 29 140
59 114 160 175 286 175 96 0 169 -33 234 -105 50 -55 74 -117 80 -201 3 -41
14 -74 41 -122 20 -36 40 -68 45 -71 15 -9 42 107 42 183 0 243 -190 440 -427
444 -67 1 -138 -7 -155 -17 -5 -3 -57 79 -116 183 -59 103 -115 199 -124 214
l-16 27 -49 -31 c-56 -35 -160 -76 -219 -86 -192 -33 -404 32 -543 166 -272
261 -255 695 36 935 28 23 33 32 25 45 -6 10 -37 63 -68 120 -32 56 -61 102
-65 102 -3 0 -31 -19 -61 -43z"/>
<path d="M1677 2264 c-1 -1 -24 -5 -51 -8 -124 -17 -273 -128 -328 -246 -108
-229 -18 -493 204 -605 38 -18 90 -37 116 -40 26 -3 58 -8 72 -9 47 -6 144 14
207 44 107 49 195 147 235 258 26 72 31 193 12 267 -36 139 -148 261 -285 311
-36 13 -175 35 -182 28z"/>
<path d="M2535 650 c-3 -5 -1 -19 5 -30 8 -14 8 -25 2 -33 -10 -11 -12 -17
-12 -34 0 -5 -5 -1 -10 7 -5 8 -10 11 -10 5 1 -5 8 -19 16 -30 15 -20 15 -20
12 0 -2 12 3 21 15 23 9 2 17 -2 17 -8 0 -6 -4 -8 -10 -5 -5 3 -10 2 -10 -4 0
-15 20 -24 20 -9 1 8 7 5 17 -7 13 -16 15 -17 10 -2 -7 18 8 24 18 7 4 -6 11
-8 16 -5 12 8 12 35 -1 35 -5 0 -7 -8 -4 -17 5 -15 3 -15 -11 2 -15 19 -20 21
-58 24 -10 0 -16 5 -12 11 3 5 12 7 19 4 19 -7 27 9 14 26 -8 12 -9 12 -4 -2
7 -23 -10 -24 -18 -1 -4 9 -1 21 6 26 9 6 8 7 -4 3 -20 -6 -25 10 -5 17 9 4 9
6 0 6 -6 1 -15 -3 -18 -9z m65 -94 c0 -3 -4 -8 -10 -11 -5 -3 -10 -1 -10 4 0
6 5 11 10 11 6 0 10 -2 10 -4z"/>
<path d="M2494 627 c-3 -9 -3 -21 1 -27 12 -19 -12 -10 -26 10 -11 15 -17 17
-29 9 -13 -10 -13 -10 1 -6 8 3 21 -3 27 -14 15 -23 35 -24 52 -3 11 12 10 18
-3 31 -15 15 -17 15 -23 0z m26 -18 c0 -5 -4 -9 -10 -9 -5 0 -10 7 -10 16 0 8
5 12 10 9 6 -3 10 -10 10 -16z"/>
<path d="M2415 590 c6 -10 4 -12 -11 -6 -15 6 -17 5 -6 -5 9 -9 15 -10 23 -2
8 8 7 13 -2 18 -8 6 -10 4 -4 -5z"/>
<path d="M2356 561 c-4 -5 -1 -13 5 -17 8 -5 9 -3 4 6 -5 8 -3 11 6 8 8 -3 16
-13 17 -23 2 -9 0 -15 -5 -12 -4 3 -14 -1 -21 -9 -17 -18 -1 -18 24 0 15 12
17 19 8 32 -13 22 -30 28 -38 15z"/>
<path d="M2460 556 c13 -13 13 -39 0 -31 -5 3 -10 1 -10 -6 0 -8 -4 -8 -15 1
-13 11 -14 10 -9 -3 6 -17 44 -19 44 -3 0 6 6 4 12 -2 10 -10 10 -15 -2 -22
-8 -6 -22 -7 -30 -4 -11 4 -12 2 -4 -6 19 -19 57 6 49 31 -6 19 9 27 18 9 3
-6 4 -5 3 2 -2 7 -10 12 -19 12 -9 -1 -18 5 -22 13 -4 11 -1 13 10 9 9 -3 13
-2 10 3 -3 6 -14 9 -25 8 -13 -1 -16 -5 -10 -11z"/>
<path d="M2415 550 c-3 -5 -2 -10 4 -10 5 0 13 5 16 10 3 6 2 10 -4 10 -5 0
-13 -4 -16 -10z"/>
<path d="M2290 515 c-13 -35 -13 -38 4 -23 7 7 11 20 8 28 -5 13 -3 13 12 1
14 -12 19 -12 29 -1 9 10 9 11 -1 6 -7 -4 -19 -2 -27 4 -12 10 -17 7 -25 -15z"/>
<path d="M2635 509 c-11 -16 -1 -19 13 -3 7 8 8 14 3 14 -5 0 -13 -5 -16 -11z"/>
<path d="M2413 498 c3 -9 1 -19 -6 -22 -7 -2 -4 -5 6 -5 20 -1 21 7 6 29 -9
13 -10 13 -6 -2z"/>
<path d="M2574 501 c4 -6 2 -19 -6 -28 -7 -9 -12 -18 -10 -20 1 -1 2 -6 2 -10
0 -5 -4 -1 -10 7 -6 9 -5 20 3 30 6 8 7 12 3 8 -5 -4 -14 -4 -20 2 -8 6 -12 3
-12 -11 0 -10 5 -19 10 -19 5 0 6 -3 3 -6 -4 -4 -13 -1 -21 6 -9 6 -21 10 -28
7 -8 -3 -6 -6 5 -6 10 -1 15 -5 12 -11 -3 -6 5 -10 19 -10 14 0 30 -8 36 -17
11 -17 11 -17 6 -1 -3 10 -1 20 5 23 5 4 7 11 4 16 -10 15 12 10 26 -7 8 -10
21 -13 38 -9 21 5 23 4 11 -10 -11 -13 -10 -15 2 -10 9 4 18 0 21 -9 4 -10 -6
-22 -30 -36 l-37 -22 -19 24 c-17 22 -18 22 -8 1 6 -12 11 -25 11 -28 0 -9
-44 6 -53 19 -6 7 -7 5 -4 -5 3 -9 0 -22 -6 -29 -10 -10 -7 -10 11 -1 12 7 27
9 33 6 5 -4 32 5 60 20 38 20 54 23 64 15 18 -15 32 7 16 23 -9 9 -11 8 -6 -5
11 -29 -3 -20 -20 12 -9 17 -11 30 -6 30 5 0 12 -6 14 -12 4 -10 6 -10 6 0 1
7 -7 16 -16 19 -10 4 -24 14 -31 22 -8 9 -11 10 -7 4 3 -7 2 -13 -2 -13 -5 0
-15 6 -22 13 -10 10 -11 8 -5 -8 7 -18 6 -18 -9 -6 -9 7 -17 19 -17 27 0 7 -5
16 -12 20 -7 4 -8 3 -4 -5z"/>
<path d="M2370 490 c-9 -6 -10 -10 -3 -10 6 0 15 5 18 10 8 12 4 12 -15 0z"/>
<path d="M2660 491 c0 -6 4 -13 10 -16 6 -3 7 1 4 9 -7 18 -14 21 -14 7z"/>
<path d="M2316 482 c-2 -4 4 -8 14 -8 10 0 16 4 14 8 -3 4 -9 8 -14 8 -5 0
-11 -4 -14 -8z"/>
<path d="M2291 463 c-1 -18 13 -23 29 -11 12 8 12 9 -2 5 -9 -3 -19 -1 -22 6
-3 9 -5 9 -5 0z"/>
<path d="M2343 449 c-14 -14 -6 -39 12 -33 13 5 29 -22 21 -35 -3 -4 4 -7 14
-8 27 -2 37 17 12 23 -10 3 -25 19 -33 35 -11 23 -17 27 -26 18z"/>
<path d="M2408 448 c9 -11 10 -18 2 -23 -5 -3 -10 -1 -10 4 0 6 -5 11 -11 11
-8 0 -8 -5 1 -15 7 -8 16 -13 20 -10 5 3 11 1 15 -4 3 -6 12 -8 19 -5 7 3 16
-2 20 -11 3 -10 13 -15 20 -12 8 3 17 -1 20 -9 3 -8 0 -14 -8 -14 -7 0 -19 -7
-26 -15 -10 -12 -7 -12 19 1 26 13 29 19 21 34 -13 24 -13 33 0 25 6 -3 10 0
10 7 0 7 10 2 21 -12 21 -25 21 -25 7 -1 -13 22 -48 38 -48 23 0 -4 -16 -7
-35 -7 -19 0 -35 5 -35 11 0 6 -8 18 -17 25 -16 13 -17 12 -5 -3z m77 -48 c3
-5 1 -10 -4 -10 -6 0 -11 5 -11 10 0 6 2 10 4 10 3 0 8 -4 11 -10z"/>
<path d="M2436 446 c2 -6 13 -12 24 -12 23 0 17 12 -9 19 -12 3 -18 0 -15 -7z"/>
<path d="M2591 407 c12 -25 14 -27 20 -10 4 10 8 12 8 6 1 -7 5 -13 11 -13 5
0 7 7 3 16 -3 8 -11 13 -18 10 -7 -2 -18 1 -25 7 -8 9 -8 4 1 -16z"/>
<path d="M2320 402 c0 -17 21 -25 31 -13 5 6 6 9 3 6 -4 -3 -13 0 -21 6 -9 8
-13 8 -13 1z"/>
<path d="M2429 373 c-13 -16 -12 -17 3 -5 13 10 17 10 21 0 2 -7 7 -10 11 -7
4 3 0 11 -7 18 -11 9 -17 7 -28 -6z"/>
<path d="M2670 361 c0 -6 4 -13 10 -16 6 -3 7 1 4 9 -7 18 -14 21 -14 7z"/>
<path d="M2365 350 c-8 -13 15 -13 35 0 12 8 11 10 -7 10 -12 0 -25 -4 -28
-10z"/>
<path d="M2637 348 c-16 -12 -15 -13 7 -13 15 0 22 5 19 13 -3 6 -6 12 -7 12
-1 0 -10 -6 -19 -12z"/>
<path d="M2433 335 c0 -8 4 -15 9 -15 4 0 8 4 8 9 0 6 -4 12 -8 15 -5 3 -9 -1
-9 -9z"/>
<path d="M2365 320 c-3 -6 1 -7 9 -4 18 7 21 14 7 14 -6 0 -13 -4 -16 -10z"/>
<path d="M2562 308 c16 -24 33 -27 33 -7 0 7 -11 16 -24 21 -23 8 -23 8 -9
-14z m28 -8 c0 -5 -2 -10 -4 -10 -3 0 -8 5 -11 10 -3 6 -1 10 4 10 6 0 11 -4
11 -10z"/>
<path d="M2444 304 c-10 -8 -13 -12 -5 -8 7 3 18 0 23 -7 8 -11 9 -10 5 3 -3
9 -1 19 6 22 7 2 7 5 1 5 -5 1 -19 -6 -30 -15z"/>
<path d="M2530 315 c0 -6 4 -17 10 -25 6 -9 5 -17 -3 -23 -8 -6 -8 -7 3 -4 8
2 14 13 12 23 -4 21 -22 45 -22 29z"/>
<path d="M2383 294 c-3 -8 2 -22 11 -30 9 -8 11 -9 6 -2 -13 16 -13 41 0 33 6
-3 10 -1 10 4 0 17 -20 13 -27 -5z"/>
<path d="M2491 293 c0 -12 2 -13 6 -5 4 10 8 10 19 1 12 -10 13 -9 8 5 -8 21
-34 21 -33 -1z"/>
<path d="M2425 250 c8 -15 11 -30 8 -34 -4 -3 -1 -6 6 -6 8 0 11 7 7 15 -3 10
3 17 21 21 l27 7 -25 10 c-13 5 -32 11 -41 12 -15 1 -15 -1 -3 -25z m25 10 c0
-5 -5 -10 -11 -10 -5 0 -7 5 -4 10 3 6 8 10 11 10 2 0 4 -4 4 -10z"/>
</g>
</svg>
